<?xml version="1.0" encoding="utf-8" standalone="no"?>
<!DOCTYPE svg PUBLIC "-//W3C//DTD SVG 1.1//EN"
  "http://www.w3.org/Graphics/SVG/1.1/DTD/svg11.dtd">
<svg xmlns:xlink="http://www.w3.org/1999/xlink" width="855.840509pt" height="460.435391pt" viewBox="0 0 855.840509 460.435391" xmlns="http://www.w3.org/2000/svg" version="1.1">
 <metadata>
  <rdf:RDF xmlns:dc="http://purl.org/dc/elements/1.1/" xmlns:cc="http://creativecommons.org/ns#" xmlns:rdf="http://www.w3.org/1999/02/22-rdf-syntax-ns#">
   <cc:Work>
    <dc:type rdf:resource="http://purl.org/dc/dcmitype/StillImage"/>
    <dc:format>image/svg+xml</dc:format>
    <dc:creator>
     <cc:Agent>
      <dc:title>E045 plot_e045.py</dc:title>
     </cc:Agent>
    </dc:creator>
   </cc:Work>
  </rdf:RDF>
 </metadata>
 <defs>
  <style type="text/css">*{stroke-linejoin: round; stroke-linecap: butt}</style>
 </defs>
 <g id="figure_1">
  <g id="patch_1">
   <path d="M 0 460.435391 
L 855.840509 460.435391 
L 855.840509 0 
L 0 0 
z
" style="fill: #ffffff"/>
  </g>
  <g id="axes_1">
   <g id="patch_2">
    <path d="M 41.925 421.235391 
L 839.893931 421.235391 
L 839.893931 23.077969 
L 41.925 23.077969 
z
" style="fill: #ffffff"/>
   </g>
   <g id="matplotlib.axis_1">
    <g id="xtick_1">
     <g id="line2d_1">
      <path d="M 41.925 421.235391 
L 41.925 23.077969 
" clip-path="url(#p6f975449d2)" style="fill: none; stroke: #b0b0b0; stroke-opacity: 0.24; stroke-width: 0.8; stroke-linecap: square"/>
     </g>
     <g id="line2d_2">
      <defs>
       <path id="mf7cbfaf36d" d="M 0 0 
L 0 3.5 
" style="stroke: #000000; stroke-width: 0.8"/>
      </defs>
      <g>
       <use xlink:href="#mf7cbfaf36d" x="41.925" y="421.235391" style="stroke: #000000; stroke-width: 0.8"/>
      </g>
     </g>
     <g id="text_1">
      <!-- 0 -->
      <g transform="translate(38.74375 435.833047) scale(0.1 -0.1)">
       <defs>
        <path id="DejaVuSans-13" d="M 2034 4250 
Q 1547 4250 1301 3770 
Q 1056 3291 1056 2328 
Q 1056 1369 1301 889 
Q 1547 409 2034 409 
Q 2525 409 2770 889 
Q 3016 1369 3016 2328 
Q 3016 3291 2770 3770 
Q 2525 4250 2034 4250 
z
M 2034 4750 
Q 2819 4750 3233 4129 
Q 3647 3509 3647 2328 
Q 3647 1150 3233 529 
Q 2819 -91 2034 -91 
Q 1250 -91 836 529 
Q 422 1150 422 2328 
Q 422 3509 836 4129 
Q 1250 4750 2034 4750 
z
" transform="scale(0.015625)"/>
       </defs>
       <use xlink:href="#DejaVuSans-13"/>
      </g>
     </g>
    </g>
    <g id="xtick_2">
     <g id="line2d_3">
      <path d="M 141.57147 421.235391 
L 141.57147 23.077969 
" clip-path="url(#p6f975449d2)" style="fill: none; stroke: #b0b0b0; stroke-opacity: 0.24; stroke-width: 0.8; stroke-linecap: square"/>
     </g>
     <g id="line2d_4">
      <g>
       <use xlink:href="#mf7cbfaf36d" x="141.57147" y="421.235391" style="stroke: #000000; stroke-width: 0.8"/>
      </g>
     </g>
     <g id="text_2">
      <!-- 25 -->
      <g transform="translate(135.20897 435.833047) scale(0.1 -0.1)">
       <defs>
        <path id="DejaVuSans-15" d="M 1228 531 
L 3431 531 
L 3431 0 
L 469 0 
L 469 531 
Q 828 903 1448 1529 
Q 2069 2156 2228 2338 
Q 2531 2678 2651 2914 
Q 2772 3150 2772 3378 
Q 2772 3750 2511 3984 
Q 2250 4219 1831 4219 
Q 1534 4219 1204 4116 
Q 875 4013 500 3803 
L 500 4441 
Q 881 4594 1212 4672 
Q 1544 4750 1819 4750 
Q 2544 4750 2975 4387 
Q 3406 4025 3406 3419 
Q 3406 3131 3298 2873 
Q 3191 2616 2906 2266 
Q 2828 2175 2409 1742 
Q 1991 1309 1228 531 
z
" transform="scale(0.015625)"/>
        <path id="DejaVuSans-18" d="M 691 4666 
L 3169 4666 
L 3169 4134 
L 1269 4134 
L 1269 2991 
Q 1406 3038 1543 3061 
Q 1681 3084 1819 3084 
Q 2600 3084 3056 2656 
Q 3513 2228 3513 1497 
Q 3513 744 3044 326 
Q 2575 -91 1722 -91 
Q 1428 -91 1123 -41 
Q 819 9 494 109 
L 494 744 
Q 775 591 1075 516 
Q 1375 441 1709 441 
Q 2250 441 2565 725 
Q 2881 1009 2881 1497 
Q 2881 1984 2565 2268 
Q 2250 2553 1709 2553 
Q 1456 2553 1204 2497 
Q 953 2441 691 2322 
L 691 4666 
z
" transform="scale(0.015625)"/>
       </defs>
       <use xlink:href="#DejaVuSans-15"/>
       <use xlink:href="#DejaVuSans-18" transform="translate(63.625 0)"/>
      </g>
     </g>
    </g>
    <g id="xtick_3">
     <g id="line2d_5">
      <path d="M 241.21794 421.235391 
L 241.21794 23.077969 
" clip-path="url(#p6f975449d2)" style="fill: none; stroke: #b0b0b0; stroke-opacity: 0.24; stroke-width: 0.8; stroke-linecap: square"/>
     </g>
     <g id="line2d_6">
      <g>
       <use xlink:href="#mf7cbfaf36d" x="241.21794" y="421.235391" style="stroke: #000000; stroke-width: 0.8"/>
      </g>
     </g>
     <g id="text_3">
      <!-- 50 -->
      <g transform="translate(234.85544 435.833047) scale(0.1 -0.1)">
       <use xlink:href="#DejaVuSans-18"/>
       <use xlink:href="#DejaVuSans-13" transform="translate(63.625 0)"/>
      </g>
     </g>
    </g>
    <g id="xtick_4">
     <g id="line2d_7">
      <path d="M 340.86441 421.235391 
L 340.86441 23.077969 
" clip-path="url(#p6f975449d2)" style="fill: none; stroke: #b0b0b0; stroke-opacity: 0.24; stroke-width: 0.8; stroke-linecap: square"/>
     </g>
     <g id="line2d_8">
      <g>
       <use xlink:href="#mf7cbfaf36d" x="340.86441" y="421.235391" style="stroke: #000000; stroke-width: 0.8"/>
      </g>
     </g>
     <g id="text_4">
      <!-- 75 -->
      <g transform="translate(334.50191 435.833047) scale(0.1 -0.1)">
       <defs>
        <path id="DejaVuSans-1a" d="M 525 4666 
L 3525 4666 
L 3525 4397 
L 1831 0 
L 1172 0 
L 2766 4134 
L 525 4134 
L 525 4666 
z
" transform="scale(0.015625)"/>
       </defs>
       <use xlink:href="#DejaVuSans-1a"/>
       <use xlink:href="#DejaVuSans-18" transform="translate(63.625 0)"/>
      </g>
     </g>
    </g>
    <g id="xtick_5">
     <g id="line2d_9">
      <path d="M 440.51088 421.235391 
L 440.51088 23.077969 
" clip-path="url(#p6f975449d2)" style="fill: none; stroke: #b0b0b0; stroke-opacity: 0.24; stroke-width: 0.8; stroke-linecap: square"/>
     </g>
     <g id="line2d_10">
      <g>
       <use xlink:href="#mf7cbfaf36d" x="440.51088" y="421.235391" style="stroke: #000000; stroke-width: 0.8"/>
      </g>
     </g>
     <g id="text_5">
      <!-- 100 -->
      <g transform="translate(430.96713 435.833047) scale(0.1 -0.1)">
       <defs>
        <path id="DejaVuSans-14" d="M 794 531 
L 1825 531 
L 1825 4091 
L 703 3866 
L 703 4441 
L 1819 4666 
L 2450 4666 
L 2450 531 
L 3481 531 
L 3481 0 
L 794 0 
L 794 531 
z
" transform="scale(0.015625)"/>
       </defs>
       <use xlink:href="#DejaVuSans-14"/>
       <use xlink:href="#DejaVuSans-13" transform="translate(63.625 0)"/>
       <use xlink:href="#DejaVuSans-13" transform="translate(127.25 0)"/>
      </g>
     </g>
    </g>
    <g id="xtick_6">
     <g id="line2d_11">
      <path d="M 540.15735 421.235391 
L 540.15735 23.077969 
" clip-path="url(#p6f975449d2)" style="fill: none; stroke: #b0b0b0; stroke-opacity: 0.24; stroke-width: 0.8; stroke-linecap: square"/>
     </g>
     <g id="line2d_12">
      <g>
       <use xlink:href="#mf7cbfaf36d" x="540.15735" y="421.235391" style="stroke: #000000; stroke-width: 0.8"/>
      </g>
     </g>
     <g id="text_6">
      <!-- 125 -->
      <g transform="translate(530.6136 435.833047) scale(0.1 -0.1)">
       <use xlink:href="#DejaVuSans-14"/>
       <use xlink:href="#DejaVuSans-15" transform="translate(63.625 0)"/>
       <use xlink:href="#DejaVuSans-18" transform="translate(127.25 0)"/>
      </g>
     </g>
    </g>
    <g id="xtick_7">
     <g id="line2d_13">
      <path d="M 639.803819 421.235391 
L 639.803819 23.077969 
" clip-path="url(#p6f975449d2)" style="fill: none; stroke: #b0b0b0; stroke-opacity: 0.24; stroke-width: 0.8; stroke-linecap: square"/>
     </g>
     <g id="line2d_14">
      <g>
       <use xlink:href="#mf7cbfaf36d" x="639.803819" y="421.235391" style="stroke: #000000; stroke-width: 0.8"/>
      </g>
     </g>
     <g id="text_7">
      <!-- 150 -->
      <g transform="translate(630.260069 435.833047) scale(0.1 -0.1)">
       <use xlink:href="#DejaVuSans-14"/>
       <use xlink:href="#DejaVuSans-18" transform="translate(63.625 0)"/>
       <use xlink:href="#DejaVuSans-13" transform="translate(127.25 0)"/>
      </g>
     </g>
    </g>
    <g id="xtick_8">
     <g id="line2d_15">
      <path d="M 739.450289 421.235391 
L 739.450289 23.077969 
" clip-path="url(#p6f975449d2)" style="fill: none; stroke: #b0b0b0; stroke-opacity: 0.24; stroke-width: 0.8; stroke-linecap: square"/>
     </g>
     <g id="line2d_16">
      <g>
       <use xlink:href="#mf7cbfaf36d" x="739.450289" y="421.235391" style="stroke: #000000; stroke-width: 0.8"/>
      </g>
     </g>
     <g id="text_8">
      <!-- 175 -->
      <g transform="translate(729.906539 435.833047) scale(0.1 -0.1)">
       <use xlink:href="#DejaVuSans-14"/>
       <use xlink:href="#DejaVuSans-1a" transform="translate(63.625 0)"/>
       <use xlink:href="#DejaVuSans-18" transform="translate(127.25 0)"/>
      </g>
     </g>
    </g>
    <g id="xtick_9">
     <g id="line2d_17">
      <path d="M 839.096759 421.235391 
L 839.096759 23.077969 
" clip-path="url(#p6f975449d2)" style="fill: none; stroke: #b0b0b0; stroke-opacity: 0.24; stroke-width: 0.8; stroke-linecap: square"/>
     </g>
     <g id="line2d_18">
      <g>
       <use xlink:href="#mf7cbfaf36d" x="839.096759" y="421.235391" style="stroke: #000000; stroke-width: 0.8"/>
      </g>
     </g>
     <g id="text_9">
      <!-- 200 -->
      <g transform="translate(829.553009 435.833047) scale(0.1 -0.1)">
       <use xlink:href="#DejaVuSans-15"/>
       <use xlink:href="#DejaVuSans-13" transform="translate(63.625 0)"/>
       <use xlink:href="#DejaVuSans-13" transform="translate(127.25 0)"/>
      </g>
     </g>
    </g>
    <g id="text_10">
     <!-- Время от старта профайлера, с -->
     <g transform="translate(348.94345 450.592812) scale(0.11 -0.11)">
      <defs>
       <path id="DejaVuSans-3a6" d="M 1259 2228 
L 1259 519 
L 2272 519 
Q 2781 519 3026 730 
Q 3272 941 3272 1375 
Q 3272 1813 3026 2020 
Q 2781 2228 2272 2228 
L 1259 2228 
z
M 1259 4147 
L 1259 2741 
L 2194 2741 
Q 2656 2741 2882 2914 
Q 3109 3088 3109 3444 
Q 3109 3797 2882 3972 
Q 2656 4147 2194 4147 
L 1259 4147 
z
M 628 4666 
L 2241 4666 
Q 2963 4666 3353 4366 
Q 3744 4066 3744 3513 
Q 3744 3084 3544 2831 
Q 3344 2578 2956 2516 
Q 3422 2416 3680 2098 
Q 3938 1781 3938 1306 
Q 3938 681 3513 340 
Q 3088 0 2303 0 
L 628 0 
L 628 4666 
z
" transform="scale(0.015625)"/>
       <path id="DejaVuSans-3d4" d="M 1159 525 
L 1159 -1331 
L 581 -1331 
L 581 3500 
L 1159 3500 
L 1159 2969 
Q 1341 3281 1617 3432 
Q 1894 3584 2278 3584 
Q 2916 3584 3314 3078 
Q 3713 2572 3713 1747 
Q 3713 922 3314 415 
Q 2916 -91 2278 -91 
Q 1894 -91 1617 61 
Q 1341 213 1159 525 
z
M 3116 1747 
Q 3116 2381 2855 2742 
Q 2594 3103 2138 3103 
Q 1681 3103 1420 2742 
Q 1159 2381 1159 1747 
Q 1159 1113 1420 752 
Q 1681 391 2138 391 
Q 2594 391 2855 752 
Q 3116 1113 3116 1747 
z
" transform="scale(0.015625)"/>
       <path id="DejaVuSans-3c9" d="M 3597 1894 
L 3597 1613 
L 953 1613 
Q 991 1019 1311 708 
Q 1631 397 2203 397 
Q 2534 397 2845 478 
Q 3156 559 3463 722 
L 3463 178 
Q 3153 47 2828 -22 
Q 2503 -91 2169 -91 
Q 1331 -91 842 396 
Q 353 884 353 1716 
Q 353 2575 817 3079 
Q 1281 3584 2069 3584 
Q 2775 3584 3186 3129 
Q 3597 2675 3597 1894 
z
M 3022 2063 
Q 3016 2534 2758 2815 
Q 2500 3097 2075 3097 
Q 1594 3097 1305 2825 
Q 1016 2553 972 2059 
L 3022 2063 
z
" transform="scale(0.015625)"/>
       <path id="DejaVuSans-3d0" d="M 581 3500 
L 1422 3500 
L 2416 1156 
L 3413 3500 
L 4247 3500 
L 4247 0 
L 3669 0 
L 3669 2950 
L 2703 672 
L 2128 672 
L 1159 2950 
L 1159 0 
L 581 0 
L 581 3500 
z
" transform="scale(0.015625)"/>
       <path id="DejaVuSans-3e3" d="M 1181 2491 
Q 1181 2231 1381 2084 
Q 1581 1938 1953 1938 
L 2728 1938 
L 2728 3041 
L 1953 3041 
Q 1581 3041 1381 2897 
Q 1181 2753 1181 2491 
z
M 363 0 
L 1431 1534 
Q 1069 1616 828 1830 
Q 588 2044 588 2491 
Q 588 2997 923 3248 
Q 1259 3500 1938 3500 
L 3306 3500 
L 3306 0 
L 2728 0 
L 2728 1478 
L 2013 1478 
L 981 0 
L 363 0 
z
" transform="scale(0.015625)"/>
       <path id="DejaVuSans-3" transform="scale(0.015625)"/>
       <path id="DejaVuSans-3d2" d="M 1959 3097 
Q 1497 3097 1228 2736 
Q 959 2375 959 1747 
Q 959 1119 1226 758 
Q 1494 397 1959 397 
Q 2419 397 2687 759 
Q 2956 1122 2956 1747 
Q 2956 2369 2687 2733 
Q 2419 3097 1959 3097 
z
M 1959 3584 
Q 2709 3584 3137 3096 
Q 3566 2609 3566 1747 
Q 3566 888 3137 398 
Q 2709 -91 1959 -91 
Q 1206 -91 779 398 
Q 353 888 353 1747 
Q 353 2609 779 3096 
Q 1206 3584 1959 3584 
z
" transform="scale(0.015625)"/>
       <path id="DejaVuSans-3d6" d="M 188 3500 
L 3541 3500 
L 3541 3041 
L 2147 3041 
L 2147 0 
L 1581 0 
L 1581 3041 
L 188 3041 
L 188 3500 
z
" transform="scale(0.015625)"/>
       <path id="DejaVuSans-3d5" d="M 3122 3366 
L 3122 2828 
Q 2878 2963 2633 3030 
Q 2388 3097 2138 3097 
Q 1578 3097 1268 2742 
Q 959 2388 959 1747 
Q 959 1106 1268 751 
Q 1578 397 2138 397 
Q 2388 397 2633 464 
Q 2878 531 3122 666 
L 3122 134 
Q 2881 22 2623 -34 
Q 2366 -91 2075 -91 
Q 1284 -91 818 406 
Q 353 903 353 1747 
Q 353 2603 823 3093 
Q 1294 3584 2113 3584 
Q 2378 3584 2631 3529 
Q 2884 3475 3122 3366 
z
" transform="scale(0.015625)"/>
       <path id="DejaVuSans-3c4" d="M 2194 1759 
Q 1497 1759 1228 1600 
Q 959 1441 959 1056 
Q 959 750 1161 570 
Q 1363 391 1709 391 
Q 2188 391 2477 730 
Q 2766 1069 2766 1631 
L 2766 1759 
L 2194 1759 
z
M 3341 1997 
L 3341 0 
L 2766 0 
L 2766 531 
Q 2569 213 2275 61 
Q 1981 -91 1556 -91 
Q 1019 -91 701 211 
Q 384 513 384 1019 
Q 384 1609 779 1909 
Q 1175 2209 1959 2209 
L 2766 2209 
L 2766 2266 
Q 2766 2663 2505 2880 
Q 2244 3097 1772 3097 
Q 1472 3097 1187 3025 
Q 903 2953 641 2809 
L 641 3341 
Q 956 3463 1253 3523 
Q 1550 3584 1831 3584 
Q 2591 3584 2966 3190 
Q 3341 2797 3341 1997 
z
" transform="scale(0.015625)"/>
       <path id="DejaVuSans-3d3" d="M 3603 3500 
L 3603 0 
L 3025 0 
L 3025 3041 
L 1159 3041 
L 1159 0 
L 581 0 
L 581 3500 
L 3603 3500 
z
" transform="scale(0.015625)"/>
       <path id="DejaVuSans-3d8" d="M 947 1747 
Q 947 1013 1173 702 
Q 1400 391 1784 391 
Q 2091 391 2447 916 
L 2447 2578 
Q 2091 3103 1784 3103 
Q 1400 3103 1173 2792 
Q 947 2481 947 1747 
z
M 2447 -1331 
L 2447 447 
Q 2269 153 2064 31 
Q 1859 -91 1600 -91 
Q 1078 -91 714 392 
Q 350 875 350 1734 
Q 350 2594 714 3089 
Q 1078 3584 1600 3584 
Q 1859 3584 2064 3465 
Q 2269 3347 2447 3053 
L 2447 4666 
L 3025 4666 
L 3025 3053 
Q 3203 3347 3408 3465 
Q 3613 3584 3872 3584 
Q 4394 3584 4758 3089 
Q 5122 2594 5122 1734 
Q 5122 875 4758 392 
Q 4394 -91 3872 -91 
Q 3613 -91 3408 31 
Q 3203 153 3025 447 
L 3025 -1331 
L 2447 -1331 
z
M 4525 1747 
Q 4525 2481 4298 2792 
Q 4072 3103 3688 3103 
Q 3381 3103 3025 2578 
L 3025 916 
Q 3381 391 3688 391 
Q 4072 391 4298 702 
Q 4525 1013 4525 1747 
z
" transform="scale(0.015625)"/>
       <path id="DejaVuSans-3cd" d="M 3578 3500 
L 3578 0 
L 3006 0 
L 3006 2809 
L 1319 0 
L 581 0 
L 581 3500 
L 1153 3500 
L 1153 697 
L 2838 3500 
L 3578 3500 
z
M 1103 4862 
L 1472 4862 
Q 1506 4628 1657 4510 
Q 1809 4393 2081 4393 
Q 2350 4393 2500 4509 
Q 2650 4625 2690 4862 
L 3059 4862 
Q 3028 4415 2781 4190 
Q 2534 3965 2081 3965 
Q 1628 3965 1381 4190 
Q 1134 4415 1103 4862 
z
" transform="scale(0.015625)"/>
       <path id="DejaVuSans-3cf" d="M 238 0 
L 238 478 
Q 806 566 981 959 
Q 1194 1513 1194 2928 
L 1194 3500 
L 3559 3500 
L 3559 0 
L 2984 0 
L 2984 3041 
L 1769 3041 
L 1769 2694 
Q 1769 1344 1494 738 
Q 1200 91 238 0 
z
" transform="scale(0.015625)"/>
       <path id="DejaVuSans-f" d="M 750 794 
L 1409 794 
L 1409 256 
L 897 -744 
L 494 -744 
L 750 256 
L 750 794 
z
" transform="scale(0.015625)"/>
      </defs>
      <use xlink:href="#DejaVuSans-3a6"/>
      <use xlink:href="#DejaVuSans-3d4" transform="translate(68.609375 0)"/>
      <use xlink:href="#DejaVuSans-3c9" transform="translate(132.09375 0)"/>
      <use xlink:href="#DejaVuSans-3d0" transform="translate(193.625 0)"/>
      <use xlink:href="#DejaVuSans-3e3" transform="translate(269.0625 0)"/>
      <use xlink:href="#DejaVuSans-3" transform="translate(329.21875 0)"/>
      <use xlink:href="#DejaVuSans-3d2" transform="translate(361 0)"/>
      <use xlink:href="#DejaVuSans-3d6" transform="translate(422.1875 0)"/>
      <use xlink:href="#DejaVuSans-3" transform="translate(480.4375 0)"/>
      <use xlink:href="#DejaVuSans-3d5" transform="translate(512.21875 0)"/>
      <use xlink:href="#DejaVuSans-3d6" transform="translate(567.203125 0)"/>
      <use xlink:href="#DejaVuSans-3c4" transform="translate(625.453125 0)"/>
      <use xlink:href="#DejaVuSans-3d4" transform="translate(686.734375 0)"/>
      <use xlink:href="#DejaVuSans-3d6" transform="translate(750.21875 0)"/>
      <use xlink:href="#DejaVuSans-3c4" transform="translate(808.46875 0)"/>
      <use xlink:href="#DejaVuSans-3" transform="translate(869.75 0)"/>
      <use xlink:href="#DejaVuSans-3d3" transform="translate(901.53125 0)"/>
      <use xlink:href="#DejaVuSans-3d4" transform="translate(966.90625 0)"/>
      <use xlink:href="#DejaVuSans-3d2" transform="translate(1030.390625 0)"/>
      <use xlink:href="#DejaVuSans-3d8" transform="translate(1091.578125 0)"/>
      <use xlink:href="#DejaVuSans-3c4" transform="translate(1177.078125 0)"/>
      <use xlink:href="#DejaVuSans-3cd" transform="translate(1238.359375 0)"/>
      <use xlink:href="#DejaVuSans-3cf" transform="translate(1303.34375 0)"/>
      <use xlink:href="#DejaVuSans-3c9" transform="translate(1367.265625 0)"/>
      <use xlink:href="#DejaVuSans-3d4" transform="translate(1428.796875 0)"/>
      <use xlink:href="#DejaVuSans-3c4" transform="translate(1492.28125 0)"/>
      <use xlink:href="#DejaVuSans-f" transform="translate(1553.5625 0)"/>
      <use xlink:href="#DejaVuSans-3" transform="translate(1585.34375 0)"/>
      <use xlink:href="#DejaVuSans-3d5" transform="translate(1617.125 0)"/>
     </g>
    </g>
   </g>
   <g id="matplotlib.axis_2">
    <g id="ytick_1">
     <g id="line2d_19">
      <path d="M 41.925 390.607897 
L 839.893931 390.607897 
" clip-path="url(#p6f975449d2)" style="fill: none; stroke: #b0b0b0; stroke-opacity: 0.24; stroke-width: 0.8; stroke-linecap: square"/>
     </g>
     <g id="line2d_20">
      <defs>
       <path id="maac13d84a6" d="M 0 0 
L -3.5 0 
" style="stroke: #000000; stroke-width: 0.8"/>
      </defs>
      <g>
       <use xlink:href="#maac13d84a6" x="41.925" y="390.607897" style="stroke: #000000; stroke-width: 0.8"/>
      </g>
     </g>
     <g id="text_11">
      <!-- 30 -->
      <g transform="translate(22.2 394.406725) scale(0.1 -0.1)">
       <defs>
        <path id="DejaVuSans-16" d="M 2597 2516 
Q 3050 2419 3304 2112 
Q 3559 1806 3559 1356 
Q 3559 666 3084 287 
Q 2609 -91 1734 -91 
Q 1441 -91 1130 -33 
Q 819 25 488 141 
L 488 750 
Q 750 597 1062 519 
Q 1375 441 1716 441 
Q 2309 441 2620 675 
Q 2931 909 2931 1356 
Q 2931 1769 2642 2001 
Q 2353 2234 1838 2234 
L 1294 2234 
L 1294 2753 
L 1863 2753 
Q 2328 2753 2575 2939 
Q 2822 3125 2822 3475 
Q 2822 3834 2567 4026 
Q 2313 4219 1838 4219 
Q 1578 4219 1281 4162 
Q 984 4106 628 3988 
L 628 4550 
Q 988 4650 1302 4700 
Q 1616 4750 1894 4750 
Q 2613 4750 3031 4423 
Q 3450 4097 3450 3541 
Q 3450 3153 3228 2886 
Q 3006 2619 2597 2516 
z
" transform="scale(0.015625)"/>
       </defs>
       <use xlink:href="#DejaVuSans-16"/>
       <use xlink:href="#DejaVuSans-13" transform="translate(63.625 0)"/>
      </g>
     </g>
    </g>
    <g id="ytick_2">
     <g id="line2d_21">
      <path d="M 41.925 329.352909 
L 839.893931 329.352909 
" clip-path="url(#p6f975449d2)" style="fill: none; stroke: #b0b0b0; stroke-opacity: 0.24; stroke-width: 0.8; stroke-linecap: square"/>
     </g>
     <g id="line2d_22">
      <g>
       <use xlink:href="#maac13d84a6" x="41.925" y="329.352909" style="stroke: #000000; stroke-width: 0.8"/>
      </g>
     </g>
     <g id="text_12">
      <!-- 40 -->
      <g transform="translate(22.2 333.151737) scale(0.1 -0.1)">
       <defs>
        <path id="DejaVuSans-17" d="M 2419 4116 
L 825 1625 
L 2419 1625 
L 2419 4116 
z
M 2253 4666 
L 3047 4666 
L 3047 1625 
L 3713 1625 
L 3713 1100 
L 3047 1100 
L 3047 0 
L 2419 0 
L 2419 1100 
L 313 1100 
L 313 1709 
L 2253 4666 
z
" transform="scale(0.015625)"/>
       </defs>
       <use xlink:href="#DejaVuSans-17"/>
       <use xlink:href="#DejaVuSans-13" transform="translate(63.625 0)"/>
      </g>
     </g>
    </g>
    <g id="ytick_3">
     <g id="line2d_23">
      <path d="M 41.925 268.097921 
L 839.893931 268.097921 
" clip-path="url(#p6f975449d2)" style="fill: none; stroke: #b0b0b0; stroke-opacity: 0.24; stroke-width: 0.8; stroke-linecap: square"/>
     </g>
     <g id="line2d_24">
      <g>
       <use xlink:href="#maac13d84a6" x="41.925" y="268.097921" style="stroke: #000000; stroke-width: 0.8"/>
      </g>
     </g>
     <g id="text_13">
      <!-- 50 -->
      <g transform="translate(22.2 271.896749) scale(0.1 -0.1)">
       <use xlink:href="#DejaVuSans-18"/>
       <use xlink:href="#DejaVuSans-13" transform="translate(63.625 0)"/>
      </g>
     </g>
    </g>
    <g id="ytick_4">
     <g id="line2d_25">
      <path d="M 41.925 206.842933 
L 839.893931 206.842933 
" clip-path="url(#p6f975449d2)" style="fill: none; stroke: #b0b0b0; stroke-opacity: 0.24; stroke-width: 0.8; stroke-linecap: square"/>
     </g>
     <g id="line2d_26">
      <g>
       <use xlink:href="#maac13d84a6" x="41.925" y="206.842933" style="stroke: #000000; stroke-width: 0.8"/>
      </g>
     </g>
     <g id="text_14">
      <!-- 60 -->
      <g transform="translate(22.2 210.641761) scale(0.1 -0.1)">
       <defs>
        <path id="DejaVuSans-19" d="M 2113 2584 
Q 1688 2584 1439 2293 
Q 1191 2003 1191 1497 
Q 1191 994 1439 701 
Q 1688 409 2113 409 
Q 2538 409 2786 701 
Q 3034 994 3034 1497 
Q 3034 2003 2786 2293 
Q 2538 2584 2113 2584 
z
M 3366 4563 
L 3366 3988 
Q 3128 4100 2886 4159 
Q 2644 4219 2406 4219 
Q 1781 4219 1451 3797 
Q 1122 3375 1075 2522 
Q 1259 2794 1537 2939 
Q 1816 3084 2150 3084 
Q 2853 3084 3261 2657 
Q 3669 2231 3669 1497 
Q 3669 778 3244 343 
Q 2819 -91 2113 -91 
Q 1303 -91 875 529 
Q 447 1150 447 2328 
Q 447 3434 972 4092 
Q 1497 4750 2381 4750 
Q 2619 4750 2861 4703 
Q 3103 4656 3366 4563 
z
" transform="scale(0.015625)"/>
       </defs>
       <use xlink:href="#DejaVuSans-19"/>
       <use xlink:href="#DejaVuSans-13" transform="translate(63.625 0)"/>
      </g>
     </g>
    </g>
    <g id="ytick_5">
     <g id="line2d_27">
      <path d="M 41.925 145.587945 
L 839.893931 145.587945 
" clip-path="url(#p6f975449d2)" style="fill: none; stroke: #b0b0b0; stroke-opacity: 0.24; stroke-width: 0.8; stroke-linecap: square"/>
     </g>
     <g id="line2d_28">
      <g>
       <use xlink:href="#maac13d84a6" x="41.925" y="145.587945" style="stroke: #000000; stroke-width: 0.8"/>
      </g>
     </g>
     <g id="text_15">
      <!-- 70 -->
      <g transform="translate(22.2 149.386773) scale(0.1 -0.1)">
       <use xlink:href="#DejaVuSans-1a"/>
       <use xlink:href="#DejaVuSans-13" transform="translate(63.625 0)"/>
      </g>
     </g>
    </g>
    <g id="ytick_6">
     <g id="line2d_29">
      <path d="M 41.925 84.332957 
L 839.893931 84.332957 
" clip-path="url(#p6f975449d2)" style="fill: none; stroke: #b0b0b0; stroke-opacity: 0.24; stroke-width: 0.8; stroke-linecap: square"/>
     </g>
     <g id="line2d_30">
      <g>
       <use xlink:href="#maac13d84a6" x="41.925" y="84.332957" style="stroke: #000000; stroke-width: 0.8"/>
      </g>
     </g>
     <g id="text_16">
      <!-- 80 -->
      <g transform="translate(22.2 88.131785) scale(0.1 -0.1)">
       <defs>
        <path id="DejaVuSans-1b" d="M 2034 2216 
Q 1584 2216 1326 1975 
Q 1069 1734 1069 1313 
Q 1069 891 1326 650 
Q 1584 409 2034 409 
Q 2484 409 2743 651 
Q 3003 894 3003 1313 
Q 3003 1734 2745 1975 
Q 2488 2216 2034 2216 
z
M 1403 2484 
Q 997 2584 770 2862 
Q 544 3141 544 3541 
Q 544 4100 942 4425 
Q 1341 4750 2034 4750 
Q 2731 4750 3128 4425 
Q 3525 4100 3525 3541 
Q 3525 3141 3298 2862 
Q 3072 2584 2669 2484 
Q 3125 2378 3379 2068 
Q 3634 1759 3634 1313 
Q 3634 634 3220 271 
Q 2806 -91 2034 -91 
Q 1263 -91 848 271 
Q 434 634 434 1313 
Q 434 1759 690 2068 
Q 947 2378 1403 2484 
z
M 1172 3481 
Q 1172 3119 1398 2916 
Q 1625 2713 2034 2713 
Q 2441 2713 2670 2916 
Q 2900 3119 2900 3481 
Q 2900 3844 2670 4047 
Q 2441 4250 2034 4250 
Q 1625 4250 1398 4047 
Q 1172 3844 1172 3481 
z
" transform="scale(0.015625)"/>
       </defs>
       <use xlink:href="#DejaVuSans-1b"/>
       <use xlink:href="#DejaVuSans-13" transform="translate(63.625 0)"/>
      </g>
     </g>
    </g>
    <g id="ytick_7">
     <g id="line2d_31">
      <path d="M 41.925 23.077969 
L 839.893931 23.077969 
" clip-path="url(#p6f975449d2)" style="fill: none; stroke: #b0b0b0; stroke-opacity: 0.24; stroke-width: 0.8; stroke-linecap: square"/>
     </g>
     <g id="line2d_32">
      <g>
       <use xlink:href="#maac13d84a6" x="41.925" y="23.077969" style="stroke: #000000; stroke-width: 0.8"/>
      </g>
     </g>
     <g id="text_17">
      <!-- 90 -->
      <g transform="translate(22.2 26.876797) scale(0.1 -0.1)">
       <defs>
        <path id="DejaVuSans-1c" d="M 703 97 
L 703 672 
Q 941 559 1184 500 
Q 1428 441 1663 441 
Q 2288 441 2617 861 
Q 2947 1281 2994 2138 
Q 2813 1869 2534 1725 
Q 2256 1581 1919 1581 
Q 1219 1581 811 2004 
Q 403 2428 403 3163 
Q 403 3881 828 4315 
Q 1253 4750 1959 4750 
Q 2769 4750 3195 4129 
Q 3622 3509 3622 2328 
Q 3622 1225 3098 567 
Q 2575 -91 1691 -91 
Q 1453 -91 1209 -44 
Q 966 3 703 97 
z
M 1959 2075 
Q 2384 2075 2632 2365 
Q 2881 2656 2881 3163 
Q 2881 3666 2632 3958 
Q 2384 4250 1959 4250 
Q 1534 4250 1286 3958 
Q 1038 3666 1038 3163 
Q 1038 2656 1286 2365 
Q 1534 2075 1959 2075 
z
" transform="scale(0.015625)"/>
       </defs>
       <use xlink:href="#DejaVuSans-1c"/>
       <use xlink:href="#DejaVuSans-13" transform="translate(63.625 0)"/>
      </g>
     </g>
    </g>
    <g id="text_18">
     <!-- Температура, °C -->
     <g transform="translate(15.557422 270.298867) rotate(-90) scale(0.11 -0.11)">
      <defs>
       <path id="DejaVuSans-3b6" d="M -19 4666 
L 3928 4666 
L 3928 4134 
L 2272 4134 
L 2272 0 
L 1638 0 
L 1638 4134 
L -19 4134 
L -19 4666 
z
" transform="scale(0.015625)"/>
       <path id="DejaVuSans-3d7" d="M 2059 -325 
Q 1816 -950 1584 -1140 
Q 1353 -1331 966 -1331 
L 506 -1331 
L 506 -850 
L 844 -850 
Q 1081 -850 1212 -737 
Q 1344 -625 1503 -206 
L 1606 56 
L 191 3500 
L 800 3500 
L 1894 763 
L 2988 3500 
L 3597 3500 
L 2059 -325 
z
" transform="scale(0.015625)"/>
       <path id="DejaVuSans-72" d="M 1600 4347 
Q 1350 4347 1178 4173 
Q 1006 4000 1006 3750 
Q 1006 3503 1178 3333 
Q 1350 3163 1600 3163 
Q 1850 3163 2022 3333 
Q 2194 3503 2194 3750 
Q 2194 3997 2020 4172 
Q 1847 4347 1600 4347 
z
M 1600 4750 
Q 1800 4750 1984 4673 
Q 2169 4597 2303 4453 
Q 2447 4313 2519 4134 
Q 2591 3956 2591 3750 
Q 2591 3338 2302 3052 
Q 2013 2766 1594 2766 
Q 1172 2766 890 3047 
Q 609 3328 609 3750 
Q 609 4169 896 4459 
Q 1184 4750 1600 4750 
z
" transform="scale(0.015625)"/>
       <path id="DejaVuSans-26" d="M 4122 4306 
L 4122 3641 
Q 3803 3938 3442 4084 
Q 3081 4231 2675 4231 
Q 1875 4231 1450 3742 
Q 1025 3253 1025 2328 
Q 1025 1406 1450 917 
Q 1875 428 2675 428 
Q 3081 428 3442 575 
Q 3803 722 4122 1019 
L 4122 359 
Q 3791 134 3420 21 
Q 3050 -91 2638 -91 
Q 1578 -91 968 557 
Q 359 1206 359 2328 
Q 359 3453 968 4101 
Q 1578 4750 2638 4750 
Q 3056 4750 3426 4639 
Q 3797 4528 4122 4306 
z
" transform="scale(0.015625)"/>
      </defs>
      <use xlink:href="#DejaVuSans-3b6"/>
      <use xlink:href="#DejaVuSans-3c9" transform="translate(61.078125 0)"/>
      <use xlink:href="#DejaVuSans-3d0" transform="translate(122.609375 0)"/>
      <use xlink:href="#DejaVuSans-3d3" transform="translate(198.046875 0)"/>
      <use xlink:href="#DejaVuSans-3c9" transform="translate(263.421875 0)"/>
      <use xlink:href="#DejaVuSans-3d4" transform="translate(324.953125 0)"/>
      <use xlink:href="#DejaVuSans-3c4" transform="translate(388.4375 0)"/>
      <use xlink:href="#DejaVuSans-3d6" transform="translate(449.71875 0)"/>
      <use xlink:href="#DejaVuSans-3d7" transform="translate(507.96875 0)"/>
      <use xlink:href="#DejaVuSans-3d4" transform="translate(567.15625 0)"/>
      <use xlink:href="#DejaVuSans-3c4" transform="translate(630.640625 0)"/>
      <use xlink:href="#DejaVuSans-f" transform="translate(691.921875 0)"/>
      <use xlink:href="#DejaVuSans-3" transform="translate(723.703125 0)"/>
      <use xlink:href="#DejaVuSans-72" transform="translate(755.484375 0)"/>
      <use xlink:href="#DejaVuSans-26" transform="translate(805.484375 0)"/>
     </g>
    </g>
   </g>
   <g id="line2d_33">
    <path d="M 41.925 340.807591 
L 45.910859 315.74205 
L 49.896718 328.654602 
L 53.882576 355.619047 
L 57.868435 357.897733 
L 61.854294 359.796638 
L 65.840153 359.416857 
L 69.826012 333.591754 
L 73.81187 334.731097 
L 77.797729 356.75839 
L 81.783588 359.796638 
L 85.769447 360.5562 
L 89.755306 361.695542 
L 93.741164 343.086277 
L 97.727023 338.528906 
L 101.712882 356.75839 
L 105.698741 361.315761 
L 109.6846 362.075323 
L 113.670458 362.075323 
L 117.656317 352.960581 
L 121.642176 331.692849 
L 125.628035 352.5808 
L 129.613894 359.037076 
L 133.599752 361.315761 
L 137.585611 361.315761 
L 141.57147 363.974228 
L 145.557329 344.22562 
L 149.543188 330.933287 
L 153.529046 356.378609 
L 157.514905 358.657295 
L 161.500764 360.176419 
L 165.486623 360.5562 
L 169.472481 347.643648 
L 173.45834 334.351316 
L 177.444199 356.75839 
L 181.430058 359.037076 
L 185.415917 359.416857 
L 189.401775 359.037076 
L 193.387634 363.214666 
L 197.373493 339.288468 
L 201.359352 339.288468 
L 205.345211 357.897733 
L 209.331069 360.5562 
L 213.316928 361.315761 
L 217.302787 359.416857 
L 221.288646 341.187372 
L 225.274505 331.692849 
L 229.260363 355.998828 
L 233.246222 361.695542 
L 237.232081 360.93598 
L 241.21794 360.93598 
L 245.203799 352.5808 
L 249.189657 336.630001 
L 253.175516 357.897733 
L 257.161375 360.5562 
L 261.147234 362.834885 
L 265.133093 361.695542 
L 269.118951 365.113571 
L 273.10481 337.389563 
L 277.090669 338.149125 
L 281.076528 357.517952 
L 285.062387 362.455104 
L 289.048245 363.214666 
L 293.034104 364.73379 
L 297.019963 342.326715 
L 301.005822 339.668249 
L 304.991681 359.796638 
L 308.977539 360.5562 
L 312.963398 361.695542 
L 316.949257 363.214666 
L 320.935116 363.214666 
L 324.920975 337.389563 
L 328.906833 348.782991 
L 332.892692 355.998828 
L 336.878551 359.796638 
L 340.86441 361.315761 
L 344.850269 362.075323 
L 348.836127 335.110878 
L 352.821986 333.971535 
L 356.807845 357.138171 
L 360.793704 359.416857 
L 364.779563 360.5562 
L 368.765421 360.5562 
L 372.75128 358.277514 
L 376.737139 335.870439 
L 380.722998 349.922334 
L 384.708857 359.037076 
L 388.694715 358.657295 
L 392.680574 361.315761 
L 396.666433 361.315761 
L 400.652292 344.605401 
L 404.63815 337.009782 
L 408.624009 357.897733 
L 412.609868 358.277514 
L 416.595727 359.796638 
L 420.581586 360.5562 
L 424.567444 355.998828 
L 428.553303 344.605401 
L 432.539162 351.061676 
L 436.525021 360.176419 
L 440.51088 361.315761 
L 444.496738 360.93598 
L 448.482597 362.834885 
L 452.468456 341.567153 
L 456.454315 332.832192 
L 460.440174 359.416857 
L 464.426032 361.315761 
L 468.411891 362.455104 
L 472.39775 355.239267 
L 476.383609 330.173725 
L 480.369468 340.42781 
L 484.355326 355.998828 
L 488.341185 359.796638 
L 492.327044 359.796638 
L 496.312903 360.93598 
L 500.298762 342.326715 
L 504.28462 336.25022 
L 508.270479 352.960581 
L 512.256338 359.037076 
L 516.242197 354.099924 
L 520.228056 352.201019 
L 524.213914 359.416857 
L 528.199773 339.668249 
L 532.185632 335.490658 
L 536.171491 356.75839 
L 540.15735 359.037076 
L 544.143208 360.5562 
L 548.129067 360.176419 
L 552.114926 342.326715 
L 556.100785 342.706496 
L 560.086644 346.884086 
L 564.072502 357.897733 
L 568.058361 358.657295 
L 572.04422 360.93598 
L 576.030079 357.138171 
L 580.015938 339.668249 
L 584.001796 351.441457 
L 587.987655 359.037076 
L 591.973514 359.037076 
L 595.959373 359.796638 
L 599.945232 361.315761 
L 603.93109 340.42781 
L 607.916949 341.567153 
L 611.902808 357.897733 
L 615.888667 358.277514 
L 619.874525 358.277514 
L 623.860384 360.176419 
L 627.846243 345.364963 
L 631.832102 324.856793 
L 635.817961 353.720143 
L 639.803819 357.897733 
L 647.775537 360.93598 
L 651.761396 357.897733 
L 655.747255 326.755697 
L 659.733113 344.22562 
L 663.718972 356.378609 
L 667.704831 359.037076 
L 671.69069 359.416857 
L 675.676549 359.416857 
L 679.662407 333.591754 
L 683.648266 338.528906 
L 687.634125 341.567153 
L 691.619984 337.009782 
L 695.605843 320.299421 
L 699.591701 329.034383 
L 703.57756 300.930594 
L 707.563419 298.651909 
L 711.549278 321.058983 
L 715.535137 317.640955 
L 719.520995 316.501612 
L 723.506854 319.160079 
L 727.492713 302.449718 
L 731.478572 292.575414 
L 735.464431 312.324022 
L 739.450289 311.944241 
L 743.436148 317.640955 
L 751.407866 313.083584 
L 755.393725 285.359576 
L 759.379583 307.007089 
L 763.365442 313.083584 
L 767.351301 316.881393 
L 771.33716 303.968842 
L 775.323019 311.56446 
L 779.308877 290.296728 
L 783.294736 281.181986 
L 787.280595 276.244834 
L 791.266454 275.865053 
L 795.252313 272.447025 
L 799.238171 257.255788 
L 803.22403 262.572721 
L 807.209889 255.736664 
L 811.195748 261.053597 
L 815.181607 267.509873 
L 819.167465 264.471625 
L 823.153324 300.550813 
L 827.139183 280.422424 
L 827.139183 280.422424 
" clip-path="url(#p6f975449d2)" style="fill: none; stroke: #d32f2f; stroke-width: 2; stroke-linecap: square"/>
   </g>
   <g id="line2d_34">
    <path d="M 41.925 353.720143 
L 45.910859 341.567153 
L 49.896718 346.504305 
L 57.868435 357.138171 
L 61.854294 357.897733 
L 65.840153 359.416857 
L 69.826012 348.40321 
L 73.81187 345.364963 
L 77.797729 357.517952 
L 81.783588 358.657295 
L 85.769447 358.657295 
L 89.755306 359.796638 
L 93.741164 353.720143 
L 97.727023 350.681895 
L 101.712882 353.720143 
L 105.698741 355.998828 
L 109.6846 358.657295 
L 113.670458 356.75839 
L 117.656317 358.657295 
L 121.642176 351.821238 
L 125.628035 352.5808 
L 129.613894 355.998828 
L 133.599752 357.897733 
L 137.585611 357.138171 
L 141.57147 359.416857 
L 145.557329 353.720143 
L 149.543188 354.099924 
L 153.529046 355.998828 
L 157.514905 358.657295 
L 161.500764 359.796638 
L 165.486623 359.796638 
L 169.472481 355.239267 
L 173.45834 351.441457 
L 177.444199 356.378609 
L 181.430058 357.138171 
L 185.415917 359.037076 
L 189.401775 357.897733 
L 193.387634 360.93598 
L 197.373493 352.201019 
L 201.359352 352.5808 
L 205.345211 356.75839 
L 213.316928 359.796638 
L 217.302787 359.037076 
L 221.288646 354.859486 
L 225.274505 350.302115 
L 229.260363 355.998828 
L 233.246222 357.517952 
L 237.232081 358.277514 
L 241.21794 359.796638 
L 245.203799 354.479705 
L 249.189657 355.239267 
L 253.175516 354.859486 
L 257.161375 358.277514 
L 265.133093 359.796638 
L 269.118951 359.796638 
L 273.10481 346.884086 
L 277.090669 346.884086 
L 281.076528 357.517952 
L 285.062387 359.037076 
L 289.048245 359.416857 
L 293.034104 359.037076 
L 297.019963 346.124524 
L 301.005822 347.263867 
L 304.991681 357.138171 
L 308.977539 357.138171 
L 312.963398 359.037076 
L 316.949257 357.138171 
L 320.935116 357.897733 
L 324.920975 347.263867 
L 328.906833 354.479705 
L 332.892692 355.239267 
L 336.878551 357.138171 
L 340.86441 357.138171 
L 344.850269 358.277514 
L 348.836127 349.922334 
L 352.821986 351.441457 
L 356.807845 356.378609 
L 360.793704 355.998828 
L 364.779563 357.138171 
L 368.765421 356.75839 
L 372.75128 358.277514 
L 376.737139 353.340362 
L 380.722998 352.5808 
L 384.708857 357.897733 
L 392.680574 359.416857 
L 396.666433 357.897733 
L 404.63815 351.061676 
L 408.624009 353.720143 
L 412.609868 357.138171 
L 416.595727 357.897733 
L 420.581586 359.416857 
L 424.567444 353.720143 
L 428.553303 348.782991 
L 436.525021 357.138171 
L 448.482597 358.277514 
L 452.468456 344.22562 
L 456.454315 352.5808 
L 460.440174 354.479705 
L 464.426032 357.517952 
L 468.411891 357.897733 
L 472.39775 357.517952 
L 476.383609 354.479705 
L 480.369468 344.22562 
L 484.355326 356.378609 
L 488.341185 350.302115 
L 492.327044 357.138171 
L 496.312903 358.277514 
L 500.298762 351.821238 
L 504.28462 346.884086 
L 508.270479 352.960581 
L 512.256338 357.517952 
L 516.242197 355.619047 
L 520.228056 357.138171 
L 524.213914 357.138171 
L 528.199773 349.162772 
L 532.185632 352.201019 
L 536.171491 354.859486 
L 540.15735 356.75839 
L 544.143208 357.897733 
L 548.129067 358.657295 
L 552.114926 348.782991 
L 556.100785 349.542553 
L 564.072502 354.099924 
L 568.058361 356.75839 
L 572.04422 355.619047 
L 576.030079 356.378609 
L 580.015938 348.782991 
L 587.987655 354.859486 
L 591.973514 351.441457 
L 595.959373 353.720143 
L 599.945232 357.897733 
L 603.93109 349.922334 
L 607.916949 348.782991 
L 611.902808 352.960581 
L 615.888667 356.378609 
L 619.874525 357.517952 
L 623.860384 356.378609 
L 627.846243 341.567153 
L 635.817961 354.479705 
L 639.803819 355.239267 
L 643.789678 356.378609 
L 647.775537 355.998828 
L 651.761396 357.138171 
L 655.747255 346.884086 
L 659.733113 352.201019 
L 663.718972 352.5808 
L 667.704831 355.998828 
L 671.69069 357.517952 
L 675.676549 356.75839 
L 679.662407 345.744743 
L 683.648266 345.364963 
L 687.634125 351.061676 
L 691.619984 345.364963 
L 695.605843 343.086277 
L 699.591701 342.706496 
L 703.57756 333.211973 
L 707.563419 329.414164 
L 711.549278 330.553506 
L 715.535137 329.414164 
L 719.520995 332.07263 
L 723.506854 333.591754 
L 727.492713 326.755697 
L 735.464431 325.236573 
L 739.450289 325.616354 
L 743.436148 328.654602 
L 747.422007 326.375916 
L 751.407866 326.375916 
L 755.393725 315.362269 
L 759.379583 321.058983 
L 767.351301 324.097231 
L 771.33716 325.236573 
L 775.323019 324.856793 
L 779.308877 318.780298 
L 783.294736 314.602708 
L 787.280595 303.968842 
L 791.266454 307.766651 
L 795.252313 296.753004 
L 799.238171 297.512566 
L 803.22403 299.411471 
L 807.209889 292.195633 
L 811.195748 293.334976 
L 815.181607 296.753004 
L 819.167465 295.993442 
L 823.153324 305.487965 
L 827.139183 296.373223 
L 827.139183 296.373223 
" clip-path="url(#p6f975449d2)" style="fill: none; stroke: #1565c0; stroke-width: 1.4; stroke-linecap: square"/>
   </g>
   <g id="line2d_35">
    <path d="M 41.925 357.138171 
L 45.910859 343.466058 
L 49.896718 344.605401 
L 53.882576 355.239267 
L 57.868435 359.037076 
L 61.854294 358.277514 
L 65.840153 359.796638 
L 69.826012 353.340362 
L 73.81187 345.744743 
L 77.797729 358.277514 
L 85.769447 361.315761 
L 89.755306 360.93598 
L 93.741164 354.099924 
L 97.727023 348.782991 
L 101.712882 356.378609 
L 105.698741 359.037076 
L 109.6846 360.176419 
L 113.670458 360.176419 
L 117.656317 360.5562 
L 121.642176 351.061676 
L 125.628035 354.859486 
L 129.613894 360.5562 
L 133.599752 360.5562 
L 137.585611 362.075323 
L 141.57147 361.695542 
L 145.557329 355.619047 
L 149.543188 350.302115 
L 153.529046 358.657295 
L 157.514905 359.416857 
L 161.500764 359.416857 
L 165.486623 362.455104 
L 169.472481 348.782991 
L 173.45834 349.922334 
L 177.444199 356.75839 
L 181.430058 359.416857 
L 185.415917 360.5562 
L 189.401775 360.93598 
L 193.387634 361.695542 
L 197.373493 353.720143 
L 201.359352 352.5808 
L 205.345211 358.657295 
L 209.331069 361.315761 
L 213.316928 360.5562 
L 217.302787 360.93598 
L 221.288646 353.720143 
L 225.274505 347.643648 
L 229.260363 356.378609 
L 233.246222 359.416857 
L 237.232081 359.416857 
L 241.21794 360.93598 
L 245.203799 361.695542 
L 249.189657 352.960581 
L 253.175516 357.897733 
L 257.161375 361.695542 
L 261.147234 361.695542 
L 265.133093 363.594447 
L 269.118951 363.214666 
L 273.10481 347.643648 
L 277.090669 354.479705 
L 281.076528 360.5562 
L 285.062387 361.315761 
L 289.048245 362.455104 
L 293.034104 362.075323 
L 297.019963 354.859486 
L 301.005822 353.720143 
L 304.991681 359.796638 
L 308.977539 360.5562 
L 312.963398 360.176419 
L 316.949257 362.075323 
L 320.935116 360.93598 
L 324.920975 349.542553 
L 328.906833 354.859486 
L 332.892692 359.037076 
L 336.878551 357.138171 
L 340.86441 361.315761 
L 344.850269 360.176419 
L 348.836127 349.922334 
L 352.821986 346.504305 
L 356.807845 356.378609 
L 360.793704 360.176419 
L 364.779563 361.315761 
L 368.765421 360.93598 
L 372.75128 359.416857 
L 376.737139 352.201019 
L 380.722998 352.201019 
L 384.708857 359.037076 
L 392.680574 360.5562 
L 396.666433 360.5562 
L 400.652292 349.542553 
L 404.63815 347.263867 
L 408.624009 356.75839 
L 412.609868 357.897733 
L 416.595727 360.176419 
L 420.581586 360.176419 
L 424.567444 360.5562 
L 428.553303 345.364963 
L 432.539162 351.821238 
L 436.525021 356.75839 
L 440.51088 359.796638 
L 444.496738 360.93598 
L 448.482597 360.176419 
L 452.468456 351.441457 
L 456.454315 353.340362 
L 460.440174 357.897733 
L 464.426032 358.657295 
L 468.411891 361.695542 
L 472.39775 360.176419 
L 476.383609 350.681895 
L 480.369468 338.908687 
L 484.355326 355.998828 
L 488.341185 359.037076 
L 492.327044 360.176419 
L 496.312903 359.796638 
L 500.298762 356.75839 
L 504.28462 347.643648 
L 508.270479 355.998828 
L 512.256338 358.657295 
L 516.242197 354.479705 
L 520.228056 356.75839 
L 524.213914 358.277514 
L 528.199773 348.782991 
L 532.185632 354.099924 
L 536.171491 358.277514 
L 540.15735 355.998828 
L 544.143208 360.5562 
L 548.129067 360.5562 
L 552.114926 352.201019 
L 556.100785 344.985182 
L 560.086644 348.40321 
L 564.072502 357.897733 
L 568.058361 357.897733 
L 576.030079 358.657295 
L 580.015938 347.263867 
L 584.001796 353.720143 
L 587.987655 358.657295 
L 591.973514 360.176419 
L 595.959373 360.176419 
L 599.945232 357.138171 
L 603.93109 351.061676 
L 607.916949 348.023429 
L 611.902808 357.517952 
L 615.888667 357.897733 
L 619.874525 358.657295 
L 623.860384 358.657295 
L 627.846243 350.681895 
L 631.832102 342.326715 
L 635.817961 355.998828 
L 639.803819 356.75839 
L 643.789678 358.657295 
L 647.775537 360.176419 
L 651.761396 359.416857 
L 655.747255 344.22562 
L 659.733113 350.302115 
L 663.718972 357.517952 
L 667.704831 358.657295 
L 671.69069 357.517952 
L 675.676549 359.416857 
L 679.662407 351.821238 
L 683.648266 349.542553 
L 687.634125 349.922334 
L 691.619984 347.643648 
L 695.605843 342.706496 
L 699.591701 340.807591 
L 703.57756 333.211973 
L 707.563419 327.135478 
L 711.549278 331.692849 
L 715.535137 330.933287 
L 719.520995 332.832192 
L 723.506854 332.452411 
L 727.492713 326.755697 
L 731.478572 321.818545 
L 735.464431 324.856793 
L 739.450289 330.933287 
L 743.436148 329.034383 
L 747.422007 327.89504 
L 751.407866 330.553506 
L 755.393725 323.337669 
L 759.379583 321.818545 
L 763.365442 325.616354 
L 767.351301 325.616354 
L 771.33716 330.933287 
L 775.323019 325.996135 
L 779.308877 307.007089 
L 783.294736 314.222927 
L 787.280595 308.526213 
L 791.266454 295.23388 
L 795.252313 291.436071 
L 799.238171 296.373223 
L 803.22403 297.512566 
L 807.209889 275.485272 
L 811.195748 287.638262 
L 815.181607 294.094538 
L 819.167465 288.777605 
L 823.153324 309.285775 
L 827.139183 293.334976 
L 827.139183 293.334976 
" clip-path="url(#p6f975449d2)" style="fill: none; stroke: #2e7d32; stroke-width: 1.4; stroke-linecap: square"/>
   </g>
   <g id="line2d_36">
    <path d="M 41.925 352.960581 
L 45.910859 344.985182 
L 49.896718 348.40321 
L 53.882576 355.998828 
L 57.868435 357.897733 
L 61.854294 360.176419 
L 65.840153 360.93598 
L 69.826012 361.315761 
L 73.81187 355.998828 
L 77.797729 357.138171 
L 81.783588 359.416857 
L 85.769447 359.037076 
L 89.755306 360.5562 
L 93.741164 355.998828 
L 97.727023 354.099924 
L 101.712882 358.657295 
L 105.698741 350.302115 
L 109.6846 360.93598 
L 113.670458 361.695542 
L 117.656317 354.479705 
L 121.642176 344.605401 
L 125.628035 359.037076 
L 129.613894 358.657295 
L 133.599752 360.93598 
L 137.585611 360.93598 
L 141.57147 362.455104 
L 145.557329 348.40321 
L 149.543188 350.681895 
L 153.529046 359.796638 
L 157.514905 355.998828 
L 161.500764 360.93598 
L 165.486623 361.695542 
L 169.472481 357.897733 
L 173.45834 350.302115 
L 177.444199 357.897733 
L 181.430058 359.037076 
L 185.415917 361.695542 
L 189.401775 359.416857 
L 193.387634 360.176419 
L 197.373493 358.657295 
L 201.359352 349.162772 
L 205.345211 359.796638 
L 209.331069 359.037076 
L 213.316928 360.93598 
L 217.302787 360.176419 
L 221.288646 358.657295 
L 225.274505 354.859486 
L 229.260363 357.897733 
L 233.246222 358.657295 
L 237.232081 360.93598 
L 241.21794 360.93598 
L 245.203799 361.315761 
L 249.189657 353.340362 
L 253.175516 358.657295 
L 257.161375 359.796638 
L 261.147234 360.5562 
L 265.133093 360.176419 
L 269.118951 361.695542 
L 273.10481 354.859486 
L 277.090669 353.720143 
L 281.076528 359.416857 
L 285.062387 360.93598 
L 289.048245 358.657295 
L 293.034104 360.5562 
L 297.019963 361.695542 
L 301.005822 358.277514 
L 304.991681 360.5562 
L 308.977539 360.5562 
L 312.963398 360.93598 
L 316.949257 361.695542 
L 320.935116 360.93598 
L 324.920975 350.302115 
L 328.906833 356.378609 
L 332.892692 359.796638 
L 336.878551 359.796638 
L 340.86441 359.416857 
L 344.850269 360.5562 
L 348.836127 355.239267 
L 352.821986 352.201019 
L 356.807845 358.277514 
L 360.793704 359.796638 
L 364.779563 357.138171 
L 368.765421 359.416857 
L 372.75128 360.176419 
L 376.737139 353.720143 
L 380.722998 355.619047 
L 384.708857 358.657295 
L 388.694715 360.93598 
L 392.680574 360.93598 
L 396.666433 359.416857 
L 400.652292 355.998828 
L 404.63815 346.124524 
L 408.624009 357.517952 
L 412.609868 359.796638 
L 420.581586 359.796638 
L 424.567444 360.93598 
L 428.553303 348.782991 
L 432.539162 354.099924 
L 436.525021 359.037076 
L 440.51088 360.5562 
L 444.496738 361.315761 
L 448.482597 360.5562 
L 452.468456 352.960581 
L 460.440174 358.277514 
L 464.426032 361.315761 
L 468.411891 360.5562 
L 472.39775 359.416857 
L 476.383609 346.884086 
L 480.369468 351.061676 
L 484.355326 356.75839 
L 488.341185 357.517952 
L 492.327044 359.416857 
L 496.312903 360.176419 
L 500.298762 358.657295 
L 504.28462 348.40321 
L 508.270479 354.099924 
L 512.256338 358.277514 
L 516.242197 352.5808 
L 520.228056 358.277514 
L 524.213914 359.796638 
L 528.199773 348.782991 
L 532.185632 356.378609 
L 536.171491 357.897733 
L 540.15735 359.796638 
L 544.143208 357.897733 
L 548.129067 360.5562 
L 552.114926 351.061676 
L 556.100785 355.619047 
L 560.086644 349.922334 
L 564.072502 355.998828 
L 572.04422 357.517952 
L 576.030079 357.897733 
L 580.015938 348.782991 
L 587.987655 357.897733 
L 591.973514 360.93598 
L 595.959373 360.176419 
L 599.945232 361.315761 
L 603.93109 357.138171 
L 607.916949 354.859486 
L 611.902808 355.239267 
L 615.888667 360.176419 
L 623.860384 358.657295 
L 627.846243 360.176419 
L 631.832102 354.479705 
L 635.817961 354.099924 
L 639.803819 357.897733 
L 643.789678 357.897733 
L 647.775537 358.657295 
L 651.761396 356.75839 
L 655.747255 350.302115 
L 659.733113 353.720143 
L 663.718972 355.998828 
L 667.704831 357.138171 
L 671.69069 357.897733 
L 675.676549 359.416857 
L 679.662407 356.75839 
L 683.648266 353.340362 
L 691.619984 350.302115 
L 695.605843 348.023429 
L 699.591701 342.706496 
L 703.57756 336.25022 
L 707.563419 333.211973 
L 711.549278 335.110878 
L 715.535137 337.389563 
L 719.520995 335.110878 
L 723.506854 332.452411 
L 727.492713 335.490658 
L 731.478572 330.553506 
L 735.464431 330.553506 
L 739.450289 332.452411 
L 743.436148 332.07263 
L 747.422007 326.755697 
L 751.407866 327.89504 
L 755.393725 315.74205 
L 763.365442 326.375916 
L 767.351301 325.996135 
L 771.33716 329.034383 
L 775.323019 330.173725 
L 779.308877 324.856793 
L 783.294736 329.414164 
L 787.280595 312.324022 
L 791.266454 316.121831 
L 799.238171 307.766651 
L 803.22403 299.791251 
L 807.209889 303.589061 
L 811.195748 297.892347 
L 815.181607 303.589061 
L 819.167465 307.38687 
L 823.153324 317.640955 
L 827.139183 307.766651 
L 827.139183 307.766651 
" clip-path="url(#p6f975449d2)" style="fill: none; stroke: #7b1fa2; stroke-width: 1.4; stroke-linecap: square"/>
   </g>
   <g id="line2d_37">
    <path d="M 41.925 53.705463 
L 839.893931 53.705463 
" clip-path="url(#p6f975449d2)" style="fill: none; stroke-dasharray: 5.55,2.4; stroke-dashoffset: 0; stroke: #b71c1c; stroke-width: 1.5"/>
   </g>
   <g id="line2d_38">
    <path d="M 829.929284 421.235391 
L 829.929284 23.077969 
" clip-path="url(#p6f975449d2)" style="fill: none; stroke-dasharray: 1.2,1.98; stroke-dashoffset: 0; stroke: #212121; stroke-width: 1.2"/>
   </g>
   <g id="patch_3">
    <path d="M 41.925 421.235391 
L 41.925 23.077969 
" style="fill: none; stroke: #000000; stroke-width: 0.8; stroke-linejoin: miter; stroke-linecap: square"/>
   </g>
   <g id="patch_4">
    <path d="M 839.893931 421.235391 
L 839.893931 23.077969 
" style="fill: none; stroke: #000000; stroke-width: 0.8; stroke-linejoin: miter; stroke-linecap: square"/>
   </g>
   <g id="patch_5">
    <path d="M 41.925 421.235391 
L 839.893931 421.235391 
" style="fill: none; stroke: #000000; stroke-width: 0.8; stroke-linejoin: miter; stroke-linecap: square"/>
   </g>
   <g id="patch_6">
    <path d="M 41.925 23.077969 
L 839.893931 23.077969 
" style="fill: none; stroke: #000000; stroke-width: 0.8; stroke-linejoin: miter; stroke-linecap: square"/>
   </g>
   <g id="text_19">
    <g id="patch_7">
     <path d="M 49.904689 419.48523 
L 368.698752 419.48523 
Q 371.848752 419.48523 371.848752 416.33523 
L 371.848752 394.57773 
Q 371.848752 391.42773 368.698752 391.42773 
L 49.904689 391.42773 
Q 46.754689 391.42773 46.754689 394.57773 
L 46.754689 416.33523 
Q 46.754689 419.48523 49.904689 419.48523 
z
" style="fill: #e8f5e9; stroke: #81c784; stroke-linejoin: miter"/>
    </g>
    <!-- CPU max 52.018 °C; DDR 46.066 °C; GPU 48.794 °C; NPU 45.136 °C. -->
    <g style="fill: #37474f" transform="translate(49.904689 402.3165) scale(0.09 -0.09)">
     <defs>
      <path id="DejaVuSans-33" d="M 1259 4147 
L 1259 2394 
L 2053 2394 
Q 2494 2394 2734 2622 
Q 2975 2850 2975 3272 
Q 2975 3691 2734 3919 
Q 2494 4147 2053 4147 
L 1259 4147 
z
M 628 4666 
L 2053 4666 
Q 2838 4666 3239 4311 
Q 3641 3956 3641 3272 
Q 3641 2581 3239 2228 
Q 2838 1875 2053 1875 
L 1259 1875 
L 1259 0 
L 628 0 
L 628 4666 
z
" transform="scale(0.015625)"/>
      <path id="DejaVuSans-38" d="M 556 4666 
L 1191 4666 
L 1191 1831 
Q 1191 1081 1462 751 
Q 1734 422 2344 422 
Q 2950 422 3222 751 
Q 3494 1081 3494 1831 
L 3494 4666 
L 4128 4666 
L 4128 1753 
Q 4128 841 3676 375 
Q 3225 -91 2344 -91 
Q 1459 -91 1007 375 
Q 556 841 556 1753 
L 556 4666 
z
" transform="scale(0.015625)"/>
      <path id="DejaVuSans-50" d="M 3328 2828 
Q 3544 3216 3844 3400 
Q 4144 3584 4550 3584 
Q 5097 3584 5394 3201 
Q 5691 2819 5691 2113 
L 5691 0 
L 5113 0 
L 5113 2094 
Q 5113 2597 4934 2840 
Q 4756 3084 4391 3084 
Q 3944 3084 3684 2787 
Q 3425 2491 3425 1978 
L 3425 0 
L 2847 0 
L 2847 2094 
Q 2847 2600 2669 2842 
Q 2491 3084 2119 3084 
Q 1678 3084 1418 2786 
Q 1159 2488 1159 1978 
L 1159 0 
L 581 0 
L 581 3500 
L 1159 3500 
L 1159 2956 
Q 1356 3278 1631 3431 
Q 1906 3584 2284 3584 
Q 2666 3584 2933 3390 
Q 3200 3197 3328 2828 
z
" transform="scale(0.015625)"/>
      <path id="DejaVuSans-44" d="M 2194 1759 
Q 1497 1759 1228 1600 
Q 959 1441 959 1056 
Q 959 750 1161 570 
Q 1363 391 1709 391 
Q 2188 391 2477 730 
Q 2766 1069 2766 1631 
L 2766 1759 
L 2194 1759 
z
M 3341 1997 
L 3341 0 
L 2766 0 
L 2766 531 
Q 2569 213 2275 61 
Q 1981 -91 1556 -91 
Q 1019 -91 701 211 
Q 384 513 384 1019 
Q 384 1609 779 1909 
Q 1175 2209 1959 2209 
L 2766 2209 
L 2766 2266 
Q 2766 2663 2505 2880 
Q 2244 3097 1772 3097 
Q 1472 3097 1187 3025 
Q 903 2953 641 2809 
L 641 3341 
Q 956 3463 1253 3523 
Q 1550 3584 1831 3584 
Q 2591 3584 2966 3190 
Q 3341 2797 3341 1997 
z
" transform="scale(0.015625)"/>
      <path id="DejaVuSans-5b" d="M 3513 3500 
L 2247 1797 
L 3578 0 
L 2900 0 
L 1881 1375 
L 863 0 
L 184 0 
L 1544 1831 
L 300 3500 
L 978 3500 
L 1906 2253 
L 2834 3500 
L 3513 3500 
z
" transform="scale(0.015625)"/>
      <path id="DejaVuSans-11" d="M 684 794 
L 1344 794 
L 1344 0 
L 684 0 
L 684 794 
z
" transform="scale(0.015625)"/>
      <path id="DejaVuSans-1e" d="M 750 3309 
L 1409 3309 
L 1409 2516 
L 750 2516 
L 750 3309 
z
M 750 794 
L 1409 794 
L 1409 256 
L 897 -744 
L 494 -744 
L 750 256 
L 750 794 
z
" transform="scale(0.015625)"/>
      <path id="DejaVuSans-27" d="M 1259 4147 
L 1259 519 
L 2022 519 
Q 2988 519 3436 956 
Q 3884 1394 3884 2338 
Q 3884 3275 3436 3711 
Q 2988 4147 2022 4147 
L 1259 4147 
z
M 628 4666 
L 1925 4666 
Q 3281 4666 3915 4102 
Q 4550 3538 4550 2338 
Q 4550 1131 3912 565 
Q 3275 0 1925 0 
L 628 0 
L 628 4666 
z
" transform="scale(0.015625)"/>
      <path id="DejaVuSans-35" d="M 2841 2188 
Q 3044 2119 3236 1894 
Q 3428 1669 3622 1275 
L 4263 0 
L 3584 0 
L 2988 1197 
Q 2756 1666 2539 1819 
Q 2322 1972 1947 1972 
L 1259 1972 
L 1259 0 
L 628 0 
L 628 4666 
L 2053 4666 
Q 2853 4666 3247 4331 
Q 3641 3997 3641 3322 
Q 3641 2881 3436 2590 
Q 3231 2300 2841 2188 
z
M 1259 4147 
L 1259 2491 
L 2053 2491 
Q 2509 2491 2742 2702 
Q 2975 2913 2975 3322 
Q 2975 3731 2742 3939 
Q 2509 4147 2053 4147 
L 1259 4147 
z
" transform="scale(0.015625)"/>
      <path id="DejaVuSans-2a" d="M 3809 666 
L 3809 1919 
L 2778 1919 
L 2778 2438 
L 4434 2438 
L 4434 434 
Q 4069 175 3628 42 
Q 3188 -91 2688 -91 
Q 1594 -91 976 548 
Q 359 1188 359 2328 
Q 359 3472 976 4111 
Q 1594 4750 2688 4750 
Q 3144 4750 3555 4637 
Q 3966 4525 4313 4306 
L 4313 3634 
Q 3963 3931 3569 4081 
Q 3175 4231 2741 4231 
Q 1884 4231 1454 3753 
Q 1025 3275 1025 2328 
Q 1025 1384 1454 906 
Q 1884 428 2741 428 
Q 3075 428 3337 486 
Q 3600 544 3809 666 
z
" transform="scale(0.015625)"/>
      <path id="DejaVuSans-31" d="M 628 4666 
L 1478 4666 
L 3547 763 
L 3547 4666 
L 4159 4666 
L 4159 0 
L 3309 0 
L 1241 3903 
L 1241 0 
L 628 0 
L 628 4666 
z
" transform="scale(0.015625)"/>
     </defs>
     <use xlink:href="#DejaVuSans-26"/>
     <use xlink:href="#DejaVuSans-33" transform="translate(69.828125 0)"/>
     <use xlink:href="#DejaVuSans-38" transform="translate(130.125 0)"/>
     <use xlink:href="#DejaVuSans-3" transform="translate(203.3125 0)"/>
     <use xlink:href="#DejaVuSans-50" transform="translate(235.09375 0)"/>
     <use xlink:href="#DejaVuSans-44" transform="translate(332.5 0)"/>
     <use xlink:href="#DejaVuSans-5b" transform="translate(393.78125 0)"/>
     <use xlink:href="#DejaVuSans-3" transform="translate(452.96875 0)"/>
     <use xlink:href="#DejaVuSans-18" transform="translate(484.75 0)"/>
     <use xlink:href="#DejaVuSans-15" transform="translate(548.375 0)"/>
     <use xlink:href="#DejaVuSans-11" transform="translate(612 0)"/>
     <use xlink:href="#DejaVuSans-13" transform="translate(643.78125 0)"/>
     <use xlink:href="#DejaVuSans-14" transform="translate(707.40625 0)"/>
     <use xlink:href="#DejaVuSans-1b" transform="translate(771.03125 0)"/>
     <use xlink:href="#DejaVuSans-3" transform="translate(834.65625 0)"/>
     <use xlink:href="#DejaVuSans-72" transform="translate(866.4375 0)"/>
     <use xlink:href="#DejaVuSans-26" transform="translate(916.4375 0)"/>
     <use xlink:href="#DejaVuSans-1e" transform="translate(986.265625 0)"/>
     <use xlink:href="#DejaVuSans-3" transform="translate(1019.953125 0)"/>
     <use xlink:href="#DejaVuSans-27" transform="translate(1051.734375 0)"/>
     <use xlink:href="#DejaVuSans-27" transform="translate(1128.734375 0)"/>
     <use xlink:href="#DejaVuSans-35" transform="translate(1205.734375 0)"/>
     <use xlink:href="#DejaVuSans-3" transform="translate(1275.21875 0)"/>
     <use xlink:href="#DejaVuSans-17" transform="translate(1307 0)"/>
     <use xlink:href="#DejaVuSans-19" transform="translate(1370.625 0)"/>
     <use xlink:href="#DejaVuSans-11" transform="translate(1434.25 0)"/>
     <use xlink:href="#DejaVuSans-13" transform="translate(1466.03125 0)"/>
     <use xlink:href="#DejaVuSans-19" transform="translate(1529.65625 0)"/>
     <use xlink:href="#DejaVuSans-19" transform="translate(1593.28125 0)"/>
     <use xlink:href="#DejaVuSans-3" transform="translate(1656.90625 0)"/>
     <use xlink:href="#DejaVuSans-72" transform="translate(1688.6875 0)"/>
     <use xlink:href="#DejaVuSans-26" transform="translate(1738.6875 0)"/>
     <use xlink:href="#DejaVuSans-1e" transform="translate(1808.515625 0)"/>
     <use xlink:href="#DejaVuSans-3" transform="translate(1842.203125 0)"/>
     <use xlink:href="#DejaVuSans-2a" transform="translate(1873.984375 0)"/>
     <use xlink:href="#DejaVuSans-33" transform="translate(1951.46875 0)"/>
     <use xlink:href="#DejaVuSans-38" transform="translate(2011.765625 0)"/>
     <use xlink:href="#DejaVuSans-3" transform="translate(2084.953125 0)"/>
     <use xlink:href="#DejaVuSans-17" transform="translate(2116.734375 0)"/>
     <use xlink:href="#DejaVuSans-1b" transform="translate(2180.359375 0)"/>
     <use xlink:href="#DejaVuSans-11" transform="translate(2243.984375 0)"/>
     <use xlink:href="#DejaVuSans-1a" transform="translate(2275.765625 0)"/>
     <use xlink:href="#DejaVuSans-1c" transform="translate(2339.390625 0)"/>
     <use xlink:href="#DejaVuSans-17" transform="translate(2403.015625 0)"/>
     <use xlink:href="#DejaVuSans-3" transform="translate(2466.640625 0)"/>
     <use xlink:href="#DejaVuSans-72" transform="translate(2498.421875 0)"/>
     <use xlink:href="#DejaVuSans-26" transform="translate(2548.421875 0)"/>
     <use xlink:href="#DejaVuSans-1e" transform="translate(2618.25 0)"/>
     <use xlink:href="#DejaVuSans-3" transform="translate(2651.9375 0)"/>
     <use xlink:href="#DejaVuSans-31" transform="translate(2683.71875 0)"/>
     <use xlink:href="#DejaVuSans-33" transform="translate(2758.53125 0)"/>
     <use xlink:href="#DejaVuSans-38" transform="translate(2818.828125 0)"/>
     <use xlink:href="#DejaVuSans-3" transform="translate(2892.015625 0)"/>
     <use xlink:href="#DejaVuSans-17" transform="translate(2923.796875 0)"/>
     <use xlink:href="#DejaVuSans-18" transform="translate(2987.421875 0)"/>
     <use xlink:href="#DejaVuSans-11" transform="translate(3051.046875 0)"/>
     <use xlink:href="#DejaVuSans-14" transform="translate(3082.828125 0)"/>
     <use xlink:href="#DejaVuSans-16" transform="translate(3146.453125 0)"/>
     <use xlink:href="#DejaVuSans-19" transform="translate(3210.078125 0)"/>
     <use xlink:href="#DejaVuSans-3" transform="translate(3273.703125 0)"/>
     <use xlink:href="#DejaVuSans-72" transform="translate(3305.484375 0)"/>
     <use xlink:href="#DejaVuSans-26" transform="translate(3355.484375 0)"/>
     <use xlink:href="#DejaVuSans-11" transform="translate(3425.3125 0)"/>
    </g>
    <!-- Thermal guard не срабатывал; скорость/acceptance не измерялись. -->
    <g style="fill: #37474f" transform="translate(49.904689 413.272242) scale(0.09 -0.09)">
     <defs>
      <path id="DejaVuSans-37" d="M -19 4666 
L 3928 4666 
L 3928 4134 
L 2272 4134 
L 2272 0 
L 1638 0 
L 1638 4134 
L -19 4134 
L -19 4666 
z
" transform="scale(0.015625)"/>
      <path id="DejaVuSans-4b" d="M 3513 2113 
L 3513 0 
L 2938 0 
L 2938 2094 
Q 2938 2591 2744 2837 
Q 2550 3084 2163 3084 
Q 1697 3084 1428 2787 
Q 1159 2491 1159 1978 
L 1159 0 
L 581 0 
L 581 4863 
L 1159 4863 
L 1159 2956 
Q 1366 3272 1645 3428 
Q 1925 3584 2291 3584 
Q 2894 3584 3203 3211 
Q 3513 2838 3513 2113 
z
" transform="scale(0.015625)"/>
      <path id="DejaVuSans-48" d="M 3597 1894 
L 3597 1613 
L 953 1613 
Q 991 1019 1311 708 
Q 1631 397 2203 397 
Q 2534 397 2845 478 
Q 3156 559 3463 722 
L 3463 178 
Q 3153 47 2828 -22 
Q 2503 -91 2169 -91 
Q 1331 -91 842 396 
Q 353 884 353 1716 
Q 353 2575 817 3079 
Q 1281 3584 2069 3584 
Q 2775 3584 3186 3129 
Q 3597 2675 3597 1894 
z
M 3022 2063 
Q 3016 2534 2758 2815 
Q 2500 3097 2075 3097 
Q 1594 3097 1305 2825 
Q 1016 2553 972 2059 
L 3022 2063 
z
" transform="scale(0.015625)"/>
      <path id="DejaVuSans-55" d="M 2631 2963 
Q 2534 3019 2420 3045 
Q 2306 3072 2169 3072 
Q 1681 3072 1420 2755 
Q 1159 2438 1159 1844 
L 1159 0 
L 581 0 
L 581 3500 
L 1159 3500 
L 1159 2956 
Q 1341 3275 1631 3429 
Q 1922 3584 2338 3584 
Q 2397 3584 2469 3576 
Q 2541 3569 2628 3553 
L 2631 2963 
z
" transform="scale(0.015625)"/>
      <path id="DejaVuSans-4f" d="M 603 4863 
L 1178 4863 
L 1178 0 
L 603 0 
L 603 4863 
z
" transform="scale(0.015625)"/>
      <path id="DejaVuSans-4a" d="M 2906 1791 
Q 2906 2416 2648 2759 
Q 2391 3103 1925 3103 
Q 1463 3103 1205 2759 
Q 947 2416 947 1791 
Q 947 1169 1205 825 
Q 1463 481 1925 481 
Q 2391 481 2648 825 
Q 2906 1169 2906 1791 
z
M 3481 434 
Q 3481 -459 3084 -895 
Q 2688 -1331 1869 -1331 
Q 1566 -1331 1297 -1286 
Q 1028 -1241 775 -1147 
L 775 -588 
Q 1028 -725 1275 -790 
Q 1522 -856 1778 -856 
Q 2344 -856 2625 -561 
Q 2906 -266 2906 331 
L 2906 616 
Q 2728 306 2450 153 
Q 2172 0 1784 0 
Q 1141 0 747 490 
Q 353 981 353 1791 
Q 353 2603 747 3093 
Q 1141 3584 1784 3584 
Q 2172 3584 2450 3431 
Q 2728 3278 2906 2969 
L 2906 3500 
L 3481 3500 
L 3481 434 
z
" transform="scale(0.015625)"/>
      <path id="DejaVuSans-58" d="M 544 1381 
L 544 3500 
L 1119 3500 
L 1119 1403 
Q 1119 906 1312 657 
Q 1506 409 1894 409 
Q 2359 409 2629 706 
Q 2900 1003 2900 1516 
L 2900 3500 
L 3475 3500 
L 3475 0 
L 2900 0 
L 2900 538 
Q 2691 219 2414 64 
Q 2138 -91 1772 -91 
Q 1169 -91 856 284 
Q 544 659 544 1381 
z
M 1991 3584 
L 1991 3584 
z
" transform="scale(0.015625)"/>
      <path id="DejaVuSans-47" d="M 2906 2969 
L 2906 4863 
L 3481 4863 
L 3481 0 
L 2906 0 
L 2906 525 
Q 2725 213 2448 61 
Q 2172 -91 1784 -91 
Q 1150 -91 751 415 
Q 353 922 353 1747 
Q 353 2572 751 3078 
Q 1150 3584 1784 3584 
Q 2172 3584 2448 3432 
Q 2725 3281 2906 2969 
z
M 947 1747 
Q 947 1113 1208 752 
Q 1469 391 1925 391 
Q 2381 391 2643 752 
Q 2906 1113 2906 1747 
Q 2906 2381 2643 2742 
Q 2381 3103 1925 3103 
Q 1469 3103 1208 2742 
Q 947 2381 947 1747 
z
" transform="scale(0.015625)"/>
      <path id="DejaVuSans-3d1" d="M 581 3500 
L 1159 3500 
L 1159 2072 
L 3025 2072 
L 3025 3500 
L 3603 3500 
L 3603 0 
L 3025 0 
L 3025 1613 
L 1159 1613 
L 1159 0 
L 581 0 
L 581 3500 
z
" transform="scale(0.015625)"/>
      <path id="DejaVuSans-3c5" d="M 1991 3584 
Q 2741 3584 3169 3096 
Q 3597 2609 3597 1747 
Q 3597 888 3169 398 
Q 2741 -91 1991 -91 
Q 1238 -91 822 384 
Q 406 859 384 1747 
L 366 2463 
Q 350 2834 350 2963 
Q 350 3463 531 3831 
Q 816 4409 1308 4659 
Q 1800 4909 2625 4916 
Q 3006 4919 3175 4972 
L 3334 4516 
Q 3181 4453 3041 4450 
L 2259 4397 
Q 1866 4369 1628 4231 
Q 1006 3866 947 3388 
L 925 3213 
Q 1331 3584 1991 3584 
z
M 1991 3097 
Q 1528 3097 1259 2736 
Q 991 2375 991 1747 
Q 991 1119 1258 758 
Q 1525 397 1991 397 
Q 2450 397 2719 759 
Q 2988 1122 2988 1747 
Q 2988 2369 2719 2733 
Q 2450 3097 1991 3097 
z
" transform="scale(0.015625)"/>
      <path id="DejaVuSans-3df" d="M 3909 3500 
L 4484 3500 
L 4484 0 
L 3909 0 
L 3909 3500 
z
M 4197 3584 
L 4197 3584 
z
M 2781 1038 
Q 2781 1319 2576 1466 
Q 2372 1613 1978 1613 
L 1159 1613 
L 1159 459 
L 1978 459 
Q 2372 459 2576 607 
Q 2781 756 2781 1038 
z
M 581 3500 
L 1159 3500 
L 1159 2072 
L 2003 2072 
Q 2672 2072 3033 1817 
Q 3394 1563 3394 1038 
Q 3394 513 3033 256 
Q 2672 0 2003 0 
L 581 0 
L 581 3500 
z
" transform="scale(0.015625)"/>
      <path id="DejaVuSans-3c6" d="M 1156 1613 
L 1156 459 
L 1975 459 
Q 2369 459 2575 607 
Q 2781 756 2781 1038 
Q 2781 1319 2575 1466 
Q 2369 1613 1975 1613 
L 1156 1613 
z
M 1156 3041 
L 1156 2072 
L 1913 2072 
Q 2238 2072 2444 2201 
Q 2650 2331 2650 2563 
Q 2650 2794 2444 2917 
Q 2238 3041 1913 3041 
L 1156 3041 
z
M 581 3500 
L 1950 3500 
Q 2566 3500 2897 3275 
Q 3228 3050 3228 2634 
Q 3228 2313 3059 2123 
Q 2891 1934 2559 1888 
Q 2956 1813 3175 1575 
Q 3394 1338 3394 981 
Q 3394 513 3033 256 
Q 2672 0 2003 0 
L 581 0 
L 581 3500 
z
" transform="scale(0.015625)"/>
      <path id="DejaVuSans-3ce" d="M 581 3500 
L 1153 3500 
L 1153 1856 
L 2775 3500 
L 3481 3500 
L 2144 2147 
L 3653 0 
L 3009 0 
L 1769 1766 
L 1153 1141 
L 1153 0 
L 581 0 
L 581 3500 
z
" transform="scale(0.015625)"/>
      <path id="DejaVuSans-3e0" d="M 2781 1038 
Q 2781 1319 2576 1466 
Q 2372 1613 1978 1613 
L 1159 1613 
L 1159 459 
L 1978 459 
Q 2372 459 2576 607 
Q 2781 756 2781 1038 
z
M 581 3500 
L 1159 3500 
L 1159 2072 
L 2003 2072 
Q 2672 2072 3033 1817 
Q 3394 1563 3394 1038 
Q 3394 513 3033 256 
Q 2672 0 2003 0 
L 581 0 
L 581 3500 
z
" transform="scale(0.015625)"/>
      <path id="DejaVuSans-12" d="M 1625 4666 
L 2156 4666 
L 531 -594 
L 0 -594 
L 1625 4666 
z
" transform="scale(0.015625)"/>
      <path id="DejaVuSans-46" d="M 3122 3366 
L 3122 2828 
Q 2878 2963 2633 3030 
Q 2388 3097 2138 3097 
Q 1578 3097 1268 2742 
Q 959 2388 959 1747 
Q 959 1106 1268 751 
Q 1578 397 2138 397 
Q 2388 397 2633 464 
Q 2878 531 3122 666 
L 3122 134 
Q 2881 22 2623 -34 
Q 2366 -91 2075 -91 
Q 1284 -91 818 406 
Q 353 903 353 1747 
Q 353 2603 823 3093 
Q 1294 3584 2113 3584 
Q 2378 3584 2631 3529 
Q 2884 3475 3122 3366 
z
" transform="scale(0.015625)"/>
      <path id="DejaVuSans-53" d="M 1159 525 
L 1159 -1331 
L 581 -1331 
L 581 3500 
L 1159 3500 
L 1159 2969 
Q 1341 3281 1617 3432 
Q 1894 3584 2278 3584 
Q 2916 3584 3314 3078 
Q 3713 2572 3713 1747 
Q 3713 922 3314 415 
Q 2916 -91 2278 -91 
Q 1894 -91 1617 61 
Q 1341 213 1159 525 
z
M 3116 1747 
Q 3116 2381 2855 2742 
Q 2594 3103 2138 3103 
Q 1681 3103 1420 2742 
Q 1159 2381 1159 1747 
Q 1159 1113 1420 752 
Q 1681 391 2138 391 
Q 2594 391 2855 752 
Q 3116 1113 3116 1747 
z
" transform="scale(0.015625)"/>
      <path id="DejaVuSans-57" d="M 1172 4494 
L 1172 3500 
L 2356 3500 
L 2356 3053 
L 1172 3053 
L 1172 1153 
Q 1172 725 1289 603 
Q 1406 481 1766 481 
L 2356 481 
L 2356 0 
L 1766 0 
Q 1100 0 847 248 
Q 594 497 594 1153 
L 594 3053 
L 172 3053 
L 172 3500 
L 594 3500 
L 594 4494 
L 1172 4494 
z
" transform="scale(0.015625)"/>
      <path id="DejaVuSans-51" d="M 3513 2113 
L 3513 0 
L 2938 0 
L 2938 2094 
Q 2938 2591 2744 2837 
Q 2550 3084 2163 3084 
Q 1697 3084 1428 2787 
Q 1159 2491 1159 1978 
L 1159 0 
L 581 0 
L 581 3500 
L 1159 3500 
L 1159 2956 
Q 1366 3272 1645 3428 
Q 1925 3584 2291 3584 
Q 2894 3584 3203 3211 
Q 3513 2838 3513 2113 
z
" transform="scale(0.015625)"/>
      <path id="DejaVuSans-3cc" d="M 3578 3500 
L 3578 0 
L 3006 0 
L 3006 2809 
L 1319 0 
L 581 0 
L 581 3500 
L 1153 3500 
L 1153 697 
L 2838 3500 
L 3578 3500 
z
" transform="scale(0.015625)"/>
      <path id="DejaVuSans-3cb" d="M 2206 1888 
Q 2594 1813 2809 1584 
Q 3025 1356 3025 1019 
Q 3025 478 2622 193 
Q 2219 -91 1475 -91 
Q 1225 -91 961 -47 
Q 697 -3 416 84 
L 416 619 
Q 638 503 903 445 
Q 1169 388 1459 388 
Q 1931 388 2195 563 
Q 2459 738 2459 1019 
Q 2459 1294 2225 1461 
Q 1991 1628 1563 1628 
L 1100 1628 
L 1100 2103 
L 1584 2103 
Q 1947 2103 2158 2242 
Q 2369 2381 2369 2600 
Q 2369 2800 2151 2944 
Q 1934 3088 1563 3088 
Q 1341 3088 1089 3047 
Q 838 3006 534 2916 
L 534 3438 
Q 841 3513 1106 3550 
Q 1372 3588 1609 3588 
Q 2222 3588 2576 3342 
Q 2931 3097 2931 2656 
Q 2931 2366 2743 2164 
Q 2556 1963 2206 1888 
z
" transform="scale(0.015625)"/>
     </defs>
     <use xlink:href="#DejaVuSans-37"/>
     <use xlink:href="#DejaVuSans-4b" transform="translate(61.078125 0)"/>
     <use xlink:href="#DejaVuSans-48" transform="translate(124.453125 0)"/>
     <use xlink:href="#DejaVuSans-55" transform="translate(185.984375 0)"/>
     <use xlink:href="#DejaVuSans-50" transform="translate(225.34375 0)"/>
     <use xlink:href="#DejaVuSans-44" transform="translate(322.75 0)"/>
     <use xlink:href="#DejaVuSans-4f" transform="translate(384.03125 0)"/>
     <use xlink:href="#DejaVuSans-3" transform="translate(411.8125 0)"/>
     <use xlink:href="#DejaVuSans-4a" transform="translate(443.59375 0)"/>
     <use xlink:href="#DejaVuSans-58" transform="translate(507.078125 0)"/>
     <use xlink:href="#DejaVuSans-44" transform="translate(570.453125 0)"/>
     <use xlink:href="#DejaVuSans-55" transform="translate(631.734375 0)"/>
     <use xlink:href="#DejaVuSans-47" transform="translate(671.09375 0)"/>
     <use xlink:href="#DejaVuSans-3" transform="translate(734.578125 0)"/>
     <use xlink:href="#DejaVuSans-3d1" transform="translate(766.359375 0)"/>
     <use xlink:href="#DejaVuSans-3c9" transform="translate(831.734375 0)"/>
     <use xlink:href="#DejaVuSans-3" transform="translate(893.265625 0)"/>
     <use xlink:href="#DejaVuSans-3d5" transform="translate(925.046875 0)"/>
     <use xlink:href="#DejaVuSans-3d4" transform="translate(980.03125 0)"/>
     <use xlink:href="#DejaVuSans-3c4" transform="translate(1043.515625 0)"/>
     <use xlink:href="#DejaVuSans-3c5" transform="translate(1104.796875 0)"/>
     <use xlink:href="#DejaVuSans-3c4" transform="translate(1166.46875 0)"/>
     <use xlink:href="#DejaVuSans-3d6" transform="translate(1227.75 0)"/>
     <use xlink:href="#DejaVuSans-3df" transform="translate(1286 0)"/>
     <use xlink:href="#DejaVuSans-3c6" transform="translate(1364.953125 0)"/>
     <use xlink:href="#DejaVuSans-3c4" transform="translate(1423.890625 0)"/>
     <use xlink:href="#DejaVuSans-3cf" transform="translate(1485.171875 0)"/>
     <use xlink:href="#DejaVuSans-1e" transform="translate(1549.09375 0)"/>
     <use xlink:href="#DejaVuSans-3" transform="translate(1582.78125 0)"/>
     <use xlink:href="#DejaVuSans-3d5" transform="translate(1614.5625 0)"/>
     <use xlink:href="#DejaVuSans-3ce" transform="translate(1669.546875 0)"/>
     <use xlink:href="#DejaVuSans-3d2" transform="translate(1729.953125 0)"/>
     <use xlink:href="#DejaVuSans-3d4" transform="translate(1791.140625 0)"/>
     <use xlink:href="#DejaVuSans-3d2" transform="translate(1854.625 0)"/>
     <use xlink:href="#DejaVuSans-3d5" transform="translate(1915.8125 0)"/>
     <use xlink:href="#DejaVuSans-3d6" transform="translate(1970.796875 0)"/>
     <use xlink:href="#DejaVuSans-3e0" transform="translate(2029.046875 0)"/>
     <use xlink:href="#DejaVuSans-12" transform="translate(2087.984375 0)"/>
     <use xlink:href="#DejaVuSans-44" transform="translate(2121.671875 0)"/>
     <use xlink:href="#DejaVuSans-46" transform="translate(2182.953125 0)"/>
     <use xlink:href="#DejaVuSans-46" transform="translate(2237.9375 0)"/>
     <use xlink:href="#DejaVuSans-48" transform="translate(2292.921875 0)"/>
     <use xlink:href="#DejaVuSans-53" transform="translate(2354.453125 0)"/>
     <use xlink:href="#DejaVuSans-57" transform="translate(2417.9375 0)"/>
     <use xlink:href="#DejaVuSans-44" transform="translate(2457.140625 0)"/>
     <use xlink:href="#DejaVuSans-51" transform="translate(2518.421875 0)"/>
     <use xlink:href="#DejaVuSans-46" transform="translate(2581.796875 0)"/>
     <use xlink:href="#DejaVuSans-48" transform="translate(2636.78125 0)"/>
     <use xlink:href="#DejaVuSans-3" transform="translate(2698.3125 0)"/>
     <use xlink:href="#DejaVuSans-3d1" transform="translate(2730.09375 0)"/>
     <use xlink:href="#DejaVuSans-3c9" transform="translate(2795.46875 0)"/>
     <use xlink:href="#DejaVuSans-3" transform="translate(2857 0)"/>
     <use xlink:href="#DejaVuSans-3cc" transform="translate(2888.78125 0)"/>
     <use xlink:href="#DejaVuSans-3cb" transform="translate(2953.765625 0)"/>
     <use xlink:href="#DejaVuSans-3d0" transform="translate(3006.9375 0)"/>
     <use xlink:href="#DejaVuSans-3c9" transform="translate(3082.375 0)"/>
     <use xlink:href="#DejaVuSans-3d4" transform="translate(3143.90625 0)"/>
     <use xlink:href="#DejaVuSans-3e3" transform="translate(3207.390625 0)"/>
     <use xlink:href="#DejaVuSans-3cf" transform="translate(3267.546875 0)"/>
     <use xlink:href="#DejaVuSans-3cc" transform="translate(3331.46875 0)"/>
     <use xlink:href="#DejaVuSans-3d5" transform="translate(3396.453125 0)"/>
     <use xlink:href="#DejaVuSans-3e0" transform="translate(3451.4375 0)"/>
     <use xlink:href="#DejaVuSans-11" transform="translate(3510.375 0)"/>
    </g>
   </g>
   <g id="text_20">
    <!-- E045a: температуры платы — OOM произошёл далеко до thermal limit -->
    <g transform="translate(199.281106 17.077969) scale(0.13 -0.13)">
     <defs>
      <path id="DejaVuSans-28" d="M 628 4666 
L 3578 4666 
L 3578 4134 
L 1259 4134 
L 1259 2753 
L 3481 2753 
L 3481 2222 
L 1259 2222 
L 1259 531 
L 3634 531 
L 3634 0 
L 628 0 
L 628 4666 
z
" transform="scale(0.015625)"/>
      <path id="DejaVuSans-1d" d="M 750 794 
L 1409 794 
L 1409 0 
L 750 0 
L 750 794 
z
M 750 3309 
L 1409 3309 
L 1409 2516 
L 750 2516 
L 750 3309 
z
" transform="scale(0.015625)"/>
      <path id="DejaVuSans-af6" d="M 313 1978 
L 6088 1978 
L 6088 1528 
L 313 1528 
L 313 1978 
z
" transform="scale(0.015625)"/>
      <path id="DejaVuSans-32" d="M 2522 4238 
Q 1834 4238 1429 3725 
Q 1025 3213 1025 2328 
Q 1025 1447 1429 934 
Q 1834 422 2522 422 
Q 3209 422 3611 934 
Q 4013 1447 4013 2328 
Q 4013 3213 3611 3725 
Q 3209 4238 2522 4238 
z
M 2522 4750 
Q 3503 4750 4090 4092 
Q 4678 3434 4678 2328 
Q 4678 1225 4090 567 
Q 3503 -91 2522 -91 
Q 1538 -91 948 565 
Q 359 1222 359 2328 
Q 359 3434 948 4092 
Q 1538 4750 2522 4750 
z
" transform="scale(0.015625)"/>
      <path id="DejaVuSans-30" d="M 628 4666 
L 1569 4666 
L 2759 1491 
L 3956 4666 
L 4897 4666 
L 4897 0 
L 4281 0 
L 4281 4097 
L 3078 897 
L 2444 897 
L 1241 4097 
L 1241 0 
L 628 0 
L 628 4666 
z
" transform="scale(0.015625)"/>
      <path id="DejaVuSans-3dc" d="M 3216 459 
L 4697 459 
L 4697 3500 
L 5275 3500 
L 5275 0 
L 581 0 
L 581 3500 
L 1159 3500 
L 1159 459 
L 2638 459 
L 2638 3500 
L 3216 3500 
L 3216 459 
z
" transform="scale(0.015625)"/>
      <path id="DejaVuSans-3e5" d="M 3597 1894 
L 3597 1613 
L 953 1613 
Q 991 1019 1311 708 
Q 1631 397 2203 397 
Q 2534 397 2845 478 
Q 3156 559 3463 722 
L 3463 178 
Q 3153 47 2828 -22 
Q 2503 -91 2169 -91 
Q 1331 -91 842 396 
Q 353 884 353 1716 
Q 353 2575 817 3079 
Q 1281 3584 2069 3584 
Q 2775 3584 3186 3129 
Q 3597 2675 3597 1894 
z
M 3022 2063 
Q 3016 2534 2758 2815 
Q 2500 3097 2075 3097 
Q 1594 3097 1305 2825 
Q 1016 2553 972 2059 
L 3022 2063 
z
M 2363 4850 
L 2997 4850 
L 2997 4219 
L 2363 4219 
L 2363 4850 
z
M 1141 4850 
L 1775 4850 
L 1775 4219 
L 1141 4219 
L 1141 4850 
z
" transform="scale(0.015625)"/>
      <path id="DejaVuSans-3c8" d="M 1384 459 
L 3053 459 
L 3053 3041 
L 1844 3041 
L 1844 2603 
Q 1844 1316 1475 628 
L 1384 459 
z
M 550 459 
Q 834 584 959 850 
Q 1266 1509 1266 2838 
L 1266 3500 
L 3631 3500 
L 3631 459 
L 4091 459 
L 4091 -884 
L 3631 -884 
L 3631 0 
L 794 0 
L 794 -884 
L 334 -884 
L 334 459 
L 550 459 
z
" transform="scale(0.015625)"/>
      <path id="DejaVuSans-4c" d="M 603 3500 
L 1178 3500 
L 1178 0 
L 603 0 
L 603 3500 
z
M 603 4863 
L 1178 4863 
L 1178 4134 
L 603 4134 
L 603 4863 
z
" transform="scale(0.015625)"/>
     </defs>
     <use xlink:href="#DejaVuSans-28"/>
     <use xlink:href="#DejaVuSans-13" transform="translate(63.1875 0)"/>
     <use xlink:href="#DejaVuSans-17" transform="translate(126.8125 0)"/>
     <use xlink:href="#DejaVuSans-18" transform="translate(190.4375 0)"/>
     <use xlink:href="#DejaVuSans-44" transform="translate(254.0625 0)"/>
     <use xlink:href="#DejaVuSans-1d" transform="translate(315.34375 0)"/>
     <use xlink:href="#DejaVuSans-3" transform="translate(349.03125 0)"/>
     <use xlink:href="#DejaVuSans-3d6" transform="translate(380.8125 0)"/>
     <use xlink:href="#DejaVuSans-3c9" transform="translate(439.0625 0)"/>
     <use xlink:href="#DejaVuSans-3d0" transform="translate(500.59375 0)"/>
     <use xlink:href="#DejaVuSans-3d3" transform="translate(576.03125 0)"/>
     <use xlink:href="#DejaVuSans-3c9" transform="translate(641.40625 0)"/>
     <use xlink:href="#DejaVuSans-3d4" transform="translate(702.9375 0)"/>
     <use xlink:href="#DejaVuSans-3c4" transform="translate(766.421875 0)"/>
     <use xlink:href="#DejaVuSans-3d6" transform="translate(827.703125 0)"/>
     <use xlink:href="#DejaVuSans-3d7" transform="translate(885.953125 0)"/>
     <use xlink:href="#DejaVuSans-3d4" transform="translate(945.140625 0)"/>
     <use xlink:href="#DejaVuSans-3df" transform="translate(1008.625 0)"/>
     <use xlink:href="#DejaVuSans-3" transform="translate(1087.578125 0)"/>
     <use xlink:href="#DejaVuSans-3d3" transform="translate(1119.359375 0)"/>
     <use xlink:href="#DejaVuSans-3cf" transform="translate(1184.734375 0)"/>
     <use xlink:href="#DejaVuSans-3c4" transform="translate(1248.65625 0)"/>
     <use xlink:href="#DejaVuSans-3d6" transform="translate(1309.9375 0)"/>
     <use xlink:href="#DejaVuSans-3df" transform="translate(1368.1875 0)"/>
     <use xlink:href="#DejaVuSans-3" transform="translate(1447.140625 0)"/>
     <use xlink:href="#DejaVuSans-af6" transform="translate(1478.921875 0)"/>
     <use xlink:href="#DejaVuSans-3" transform="translate(1578.921875 0)"/>
     <use xlink:href="#DejaVuSans-32" transform="translate(1610.703125 0)"/>
     <use xlink:href="#DejaVuSans-32" transform="translate(1689.421875 0)"/>
     <use xlink:href="#DejaVuSans-30" transform="translate(1768.140625 0)"/>
     <use xlink:href="#DejaVuSans-3" transform="translate(1854.421875 0)"/>
     <use xlink:href="#DejaVuSans-3d3" transform="translate(1886.203125 0)"/>
     <use xlink:href="#DejaVuSans-3d4" transform="translate(1951.578125 0)"/>
     <use xlink:href="#DejaVuSans-3d2" transform="translate(2015.0625 0)"/>
     <use xlink:href="#DejaVuSans-3cc" transform="translate(2076.25 0)"/>
     <use xlink:href="#DejaVuSans-3cb" transform="translate(2141.234375 0)"/>
     <use xlink:href="#DejaVuSans-3d2" transform="translate(2194.40625 0)"/>
     <use xlink:href="#DejaVuSans-3dc" transform="translate(2255.59375 0)"/>
     <use xlink:href="#DejaVuSans-3e5" transform="translate(2347.09375 0)"/>
     <use xlink:href="#DejaVuSans-3cf" transform="translate(2408.625 0)"/>
     <use xlink:href="#DejaVuSans-3" transform="translate(2472.546875 0)"/>
     <use xlink:href="#DejaVuSans-3c8" transform="translate(2504.328125 0)"/>
     <use xlink:href="#DejaVuSans-3c4" transform="translate(2573.46875 0)"/>
     <use xlink:href="#DejaVuSans-3cf" transform="translate(2634.75 0)"/>
     <use xlink:href="#DejaVuSans-3c9" transform="translate(2698.671875 0)"/>
     <use xlink:href="#DejaVuSans-3ce" transform="translate(2760.203125 0)"/>
     <use xlink:href="#DejaVuSans-3d2" transform="translate(2820.609375 0)"/>
     <use xlink:href="#DejaVuSans-3" transform="translate(2881.796875 0)"/>
     <use xlink:href="#DejaVuSans-3c8" transform="translate(2913.578125 0)"/>
     <use xlink:href="#DejaVuSans-3d2" transform="translate(2982.71875 0)"/>
     <use xlink:href="#DejaVuSans-3" transform="translate(3043.90625 0)"/>
     <use xlink:href="#DejaVuSans-57" transform="translate(3075.6875 0)"/>
     <use xlink:href="#DejaVuSans-4b" transform="translate(3114.890625 0)"/>
     <use xlink:href="#DejaVuSans-48" transform="translate(3178.265625 0)"/>
     <use xlink:href="#DejaVuSans-55" transform="translate(3239.796875 0)"/>
     <use xlink:href="#DejaVuSans-50" transform="translate(3279.15625 0)"/>
     <use xlink:href="#DejaVuSans-44" transform="translate(3376.5625 0)"/>
     <use xlink:href="#DejaVuSans-4f" transform="translate(3437.84375 0)"/>
     <use xlink:href="#DejaVuSans-3" transform="translate(3465.625 0)"/>
     <use xlink:href="#DejaVuSans-4f" transform="translate(3497.40625 0)"/>
     <use xlink:href="#DejaVuSans-4c" transform="translate(3525.1875 0)"/>
     <use xlink:href="#DejaVuSans-50" transform="translate(3552.96875 0)"/>
     <use xlink:href="#DejaVuSans-4c" transform="translate(3650.375 0)"/>
     <use xlink:href="#DejaVuSans-57" transform="translate(3678.15625 0)"/>
    </g>
   </g>
   <g id="legend_1">
    <g id="patch_8">
     <path d="M 48.925 61.079531 
L 345.653125 61.079531 
Q 347.653125 61.079531 347.653125 59.079531 
L 347.653125 30.077969 
Q 347.653125 28.077969 345.653125 28.077969 
L 48.925 28.077969 
Q 46.925 28.077969 46.925 30.077969 
L 46.925 59.079531 
Q 46.925 61.079531 48.925 61.079531 
z
" style="fill: #ffffff; opacity: 0.8; stroke: #cccccc; stroke-linejoin: miter"/>
    </g>
    <g id="line2d_39">
     <path d="M 50.925 36.176406 
L 60.925 36.176406 
L 70.925 36.176406 
" style="fill: none; stroke: #d32f2f; stroke-width: 2; stroke-linecap: square"/>
    </g>
    <g id="text_21">
     <!-- CPU max -->
     <g transform="translate(78.925 39.676406) scale(0.1 -0.1)">
      <use xlink:href="#DejaVuSans-26"/>
      <use xlink:href="#DejaVuSans-33" transform="translate(69.828125 0)"/>
      <use xlink:href="#DejaVuSans-38" transform="translate(130.125 0)"/>
      <use xlink:href="#DejaVuSans-3" transform="translate(203.3125 0)"/>
      <use xlink:href="#DejaVuSans-50" transform="translate(235.09375 0)"/>
      <use xlink:href="#DejaVuSans-44" transform="translate(332.5 0)"/>
      <use xlink:href="#DejaVuSans-5b" transform="translate(393.78125 0)"/>
     </g>
    </g>
    <g id="line2d_40">
     <path d="M 50.925 51.177188 
L 60.925 51.177188 
L 70.925 51.177188 
" style="fill: none; stroke: #1565c0; stroke-width: 1.4; stroke-linecap: square"/>
    </g>
    <g id="text_22">
     <!-- DDR -->
     <g transform="translate(78.925 54.677188) scale(0.1 -0.1)">
      <use xlink:href="#DejaVuSans-27"/>
      <use xlink:href="#DejaVuSans-27" transform="translate(77 0)"/>
      <use xlink:href="#DejaVuSans-35" transform="translate(154 0)"/>
     </g>
    </g>
    <g id="line2d_41">
     <path d="M 144.221875 36.176406 
L 154.221875 36.176406 
L 164.221875 36.176406 
" style="fill: none; stroke: #2e7d32; stroke-width: 1.4; stroke-linecap: square"/>
    </g>
    <g id="text_23">
     <!-- GPU -->
     <g transform="translate(172.221875 39.676406) scale(0.1 -0.1)">
      <use xlink:href="#DejaVuSans-2a"/>
      <use xlink:href="#DejaVuSans-33" transform="translate(77.484375 0)"/>
      <use xlink:href="#DejaVuSans-38" transform="translate(137.78125 0)"/>
     </g>
    </g>
    <g id="line2d_42">
     <path d="M 144.221875 51.177188 
L 154.221875 51.177188 
L 164.221875 51.177188 
" style="fill: none; stroke: #7b1fa2; stroke-width: 1.4; stroke-linecap: square"/>
    </g>
    <g id="text_24">
     <!-- NPU -->
     <g transform="translate(172.221875 54.677188) scale(0.1 -0.1)">
      <use xlink:href="#DejaVuSans-31"/>
      <use xlink:href="#DejaVuSans-33" transform="translate(74.8125 0)"/>
      <use xlink:href="#DejaVuSans-38" transform="translate(135.109375 0)"/>
     </g>
    </g>
    <g id="line2d_43">
     <path d="M 213.31875 36.176406 
L 223.31875 36.176406 
L 233.31875 36.176406 
" style="fill: none; stroke-dasharray: 5.55,2.4; stroke-dashoffset: 0; stroke: #b71c1c; stroke-width: 1.5"/>
    </g>
    <g id="text_25">
     <!-- thermal guard 85 °C -->
     <g transform="translate(241.31875 39.676406) scale(0.1 -0.1)">
      <use xlink:href="#DejaVuSans-57"/>
      <use xlink:href="#DejaVuSans-4b" transform="translate(39.203125 0)"/>
      <use xlink:href="#DejaVuSans-48" transform="translate(102.578125 0)"/>
      <use xlink:href="#DejaVuSans-55" transform="translate(164.109375 0)"/>
      <use xlink:href="#DejaVuSans-50" transform="translate(203.46875 0)"/>
      <use xlink:href="#DejaVuSans-44" transform="translate(300.875 0)"/>
      <use xlink:href="#DejaVuSans-4f" transform="translate(362.15625 0)"/>
      <use xlink:href="#DejaVuSans-3" transform="translate(389.9375 0)"/>
      <use xlink:href="#DejaVuSans-4a" transform="translate(421.71875 0)"/>
      <use xlink:href="#DejaVuSans-58" transform="translate(485.203125 0)"/>
      <use xlink:href="#DejaVuSans-44" transform="translate(548.578125 0)"/>
      <use xlink:href="#DejaVuSans-55" transform="translate(609.859375 0)"/>
      <use xlink:href="#DejaVuSans-47" transform="translate(649.21875 0)"/>
      <use xlink:href="#DejaVuSans-3" transform="translate(712.703125 0)"/>
      <use xlink:href="#DejaVuSans-1b" transform="translate(744.484375 0)"/>
      <use xlink:href="#DejaVuSans-18" transform="translate(808.109375 0)"/>
      <use xlink:href="#DejaVuSans-3" transform="translate(871.734375 0)"/>
      <use xlink:href="#DejaVuSans-72" transform="translate(903.515625 0)"/>
      <use xlink:href="#DejaVuSans-26" transform="translate(953.515625 0)"/>
     </g>
    </g>
    <g id="line2d_44">
     <path d="M 213.31875 51.177188 
L 223.31875 51.177188 
L 233.31875 51.177188 
" style="fill: none; stroke-dasharray: 1.2,1.98; stroke-dashoffset: 0; stroke: #212121; stroke-width: 1.2"/>
    </g>
    <g id="text_26">
     <!-- OOM ≈ 197.7 с -->
     <g transform="translate(241.31875 54.677188) scale(0.1 -0.1)">
      <defs>
       <path id="DejaVuSans-cd2" d="M 4684 1947 
L 4684 1388 
Q 4356 1144 4076 1036 
Q 3797 928 3494 928 
Q 3150 928 2694 1113 
Q 2663 1125 2641 1134 
Q 2622 1141 2575 1159 
Q 2091 1350 1797 1350 
Q 1522 1350 1253 1231 
Q 984 1113 678 850 
L 678 1409 
Q 1006 1653 1286 1761 
Q 1566 1869 1869 1869 
Q 2213 1869 2672 1684 
Q 2706 1669 2722 1663 
Q 2741 1656 2788 1638 
Q 3272 1447 3566 1447 
Q 3834 1447 4098 1564 
Q 4363 1681 4684 1947 
z
M 4684 3163 
L 4684 2606 
Q 4356 2359 4076 2251 
Q 3797 2144 3494 2144 
Q 3150 2144 2694 2328 
Q 2663 2341 2641 2350 
Q 2622 2356 2575 2375 
Q 2091 2566 1797 2566 
Q 1522 2566 1253 2447 
Q 984 2328 678 2069 
L 678 2625 
Q 1006 2869 1286 2976 
Q 1566 3084 1869 3084 
Q 2213 3084 2672 2900 
Q 2703 2888 2719 2881 
Q 2741 2872 2788 2853 
Q 3272 2663 3566 2663 
Q 3834 2663 4098 2780 
Q 4363 2897 4684 3163 
z
" transform="scale(0.015625)"/>
      </defs>
      <use xlink:href="#DejaVuSans-32"/>
      <use xlink:href="#DejaVuSans-32" transform="translate(78.71875 0)"/>
      <use xlink:href="#DejaVuSans-30" transform="translate(157.4375 0)"/>
      <use xlink:href="#DejaVuSans-3" transform="translate(243.71875 0)"/>
      <use xlink:href="#DejaVuSans-cd2" transform="translate(275.5 0)"/>
      <use xlink:href="#DejaVuSans-3" transform="translate(359.296875 0)"/>
      <use xlink:href="#DejaVuSans-14" transform="translate(391.078125 0)"/>
      <use xlink:href="#DejaVuSans-1c" transform="translate(454.703125 0)"/>
      <use xlink:href="#DejaVuSans-1a" transform="translate(518.328125 0)"/>
      <use xlink:href="#DejaVuSans-11" transform="translate(581.953125 0)"/>
      <use xlink:href="#DejaVuSans-1a" transform="translate(613.734375 0)"/>
      <use xlink:href="#DejaVuSans-3" transform="translate(677.359375 0)"/>
      <use xlink:href="#DejaVuSans-3d5" transform="translate(709.140625 0)"/>
     </g>
    </g>
   </g>
  </g>
 </g>
 <defs>
  <clipPath id="p6f975449d2">
   <rect x="41.925" y="23.077969" width="797.968931" height="398.157422"/>
  </clipPath>
 </defs>
</svg>
